<?xml version="1.0" encoding="utf-8"?>
<!-- Generator: Adobe Illustrator 19.0.0, SVG Export Plug-In . SVG Version: 6.00 Build 0)  -->
<svg version="1.1" id="Слой_1" xmlns="http://www.w3.org/2000/svg" xmlns:xlink="http://www.w3.org/1999/xlink" x="0px" y="0px"
	 viewBox="-272.2 393.9 28.2 42" style="enable-background:new -272.2 393.9 28.2 42;" xml:space="preserve">
<path d="M-258.1,393.9c-7.8,0-14.1,6.3-14.1,14.1c0,1,0.1,1.9,0.3,2.9c0.8,3.7,3.2,7,5.1,10.2c1.5,2.5,3,5.1,4.5,7.6
	c1,1.6,1.9,3.2,2.8,4.8c0.5,0.8,0.9,1.6,1.3,2.3c0,0,0,0,0,0.1c-0.1-0.1,0.8-1.4,0.9-1.5c0.8-1.4,1.6-2.8,2.4-4.2
	c1.9-3.3,3.9-6.6,5.9-9.9c1.8-3,3.9-6.1,4.6-9.5c0.2-0.9,0.3-1.9,0.3-2.9C-244,400.2-250.3,393.9-258.1,393.9z M-258.1,414.1
	c-2.4,0-4.4-1.3-5.5-3.3c-0.5-0.9-0.7-1.8-0.7-2.9c0-3.4,2.8-6.2,6.2-6.2c3.4,0,6.2,2.8,6.2,6.2c0,1-0.3,2-0.7,2.9
	C-253.7,412.8-255.7,414.1-258.1,414.1z"/>
</svg>
