<?xml version="1.0" encoding="utf-8"?>
<!-- Generator: Adobe Illustrator 19.0.0, SVG Export Plug-In . SVG Version: 6.00 Build 0)  -->
<svg version="1.1"
	 id="Слой_1" xmlns:inkscape="http://www.inkscape.org/namespaces/inkscape" xmlns:sodipodi="http://sodipodi.sourceforge.net/DTD/sodipodi-0.dtd" xmlns:svg="http://www.w3.org/2000/svg" xmlns:rdf="http://www.w3.org/1999/02/22-rdf-syntax-ns#" xmlns:dc="http://purl.org/dc/elements/1.1/" xmlns:cc="http://creativecommons.org/ns#"
	 xmlns="http://www.w3.org/2000/svg" xmlns:xlink="http://www.w3.org/1999/xlink" x="0px" y="0px" viewBox="24.1 12 51.9 52"
	 style="enable-background:new 24.1 12 51.9 52;" xml:space="preserve">
<g transform="translate(0,-952.36218)">
	<path d="M50,964.4c-14.4,0-26,11.6-26,26c0,14.4,11.6,26,26,26s26-11.6,26-26C76,976,64.4,964.4,50,964.4L50,964.4z M50,973.4
		c1.1,0,2,0.9,2,2v13h11c1.1,0,2,0.9,2,2s-0.9,2-2,2H50c-1.1,0-2-0.9-2-2v-15C48,974.3,48.9,973.4,50,973.4z"/>
</g>
</svg>
