<?xml version="1.0" encoding="utf-8"?>
<!-- Generator: Adobe Illustrator 19.2.0, SVG Export Plug-In . SVG Version: 6.00 Build 0)  -->
<svg version="1.1" id="Слой_1" xmlns="http://www.w3.org/2000/svg" xmlns:xlink="http://www.w3.org/1999/xlink" x="0px" y="0px"
	 viewBox="0 0 27.1 27.1" style="enable-background:new 0 0 27.1 27.1;" xml:space="preserve">
<title>инстаграмм</title>
<path d="M19.1,3.1H8c-2.6,0-4.8,2.1-4.8,4.8v11c0,2.6,2.1,4.8,4.8,4.8h11c2.6,0,4.8-2.1,4.8-4.8v-11C23.9,5.3,21.7,3.1,19.1,3.1z
	 M13.6,18.3c-2.3,0-4.1-1.9-4.1-4.1s1.9-4.1,4.1-4.1s4.1,1.9,4.1,4.1S15.8,18.3,13.6,18.3z M19.9,9.1c-0.9,0-1.6-0.7-1.6-1.6
	S19,6,19.9,6s1.6,0.7,1.6,1.6S20.8,9.1,19.9,9.1z"/>
</svg>
