<?xml version="1.0" encoding="utf-8"?>
<!-- Generator: Adobe Illustrator 19.0.0, SVG Export Plug-In . SVG Version: 6.00 Build 0)  -->
<svg version="1.1" id="_x31_" xmlns="http://www.w3.org/2000/svg" xmlns:xlink="http://www.w3.org/1999/xlink" x="0px" y="0px"
	 viewBox="0 0 841 595" style="enable-background:new 0 0 841 595;" xml:space="preserve">
<style type="text/css">
	.st0{fill-rule:evenodd;clip-rule:evenodd;}
</style>
<g>
	<path class="st0" d="M170.1,259.7c-2,4.6-4,9.1-5.9,13.7c-1.9,4.4-4.1,10-6.6,16.7c-0.3,0.8-0.5,1.6-0.8,2.4c0.7,0.3,1.3,0.6,2,1
		c3.3-9.7,7.6-20.6,13-32.5c0.3-0.6,0.5-1.2,0.8-1.8c-0.6-0.3-1.1-0.7-1.7-1.1C170.7,258.5,170.4,259.1,170.1,259.7z"/>
	<path class="st0" d="M132.7,268.3c4-0.5,8.3,1.3,12.8,5.3c0-0.4,0-0.8,0-1.2c-4.1-4.7-8.5-6.8-13.2-6.3c-7.1,0.8-12.4,5.5-16,13.9
		c-3.5,8.4-5.3,20.5-5.3,36.4c0,7.4,0.4,14.2,1.3,20.2c0.9,6,2.2,11.3,4,15.9c3.5,9.2,8.1,14.2,14,14.9c0-0.3,0-0.6,0-0.9
		c-5.3-2-9.6-7.4-12.6-16.1c-1.5-4.4-2.6-9.4-3.3-15.1c-0.7-5.7-1.1-11.9-1.1-18.9c0-15.2,1.6-26.8,4.8-34.8
		C121.3,273.5,126.2,269,132.7,268.3z"/>
	<path class="st0" d="M167.5,334.9c-0.5,7.8-1.5,14.2-2.9,19.1c-1.5,4.9-3.7,9.4-6.7,13.6c-6.3,8.5-14.4,13.5-24.2,14.8
		c-9.1,1.2-16.8-0.3-23.2-4.6c0,0.3,0,0.5,0,0.8c7.2,5.3,15,7.4,23.3,6.3c11-1.5,19.5-6.5,25.7-15.2c3-4.3,5.5-9.5,7.1-15.5
		c1.7-6,2.8-12.8,3.2-20.4c-0.7-0.3-1.5-0.6-2.1-0.9C167.7,333.5,167.6,334.2,167.5,334.9z"/>
	<path class="st0" d="M131.4,377.7c14.6-1.9,24.1-9.9,28.8-23.9c2.2-6.6,3.3-12.9,3.3-18.8c0-4-0.9-5.8-2.9-5.6
		c-1.5,0.2-2.3,1.6-2.5,4.1c-0.8,10.7-3.3,19.1-7.5,25.4c-4.1,6.2-9.8,9.8-16.8,10.7c-8.8,1.2-15.6-2.8-20.5-12.1
		c-2.5-4.6-4.4-10.3-5.6-16.9c-1.2-6.7-1.8-14.4-1.8-23.1c0-10.2,0.7-18.9,2-26.3c1.3-7.3,3.3-13.3,6-17.9
		c4.3-7.3,9.6-11.4,15.9-12.2c6-0.7,11.1,1.4,15.3,6.4c4.2,5,6.8,12,8,21.1c0.3,0.2,0.7,0.4,1,0.5c0.2-0.7,0.4-1.5,0.6-2.2
		c3.3-10,7.2-20,11.7-30.1c0.3-0.6,0.5-1.2,0.9-1.9c-0.4-0.2-0.8-0.5-1.2-0.7c-2.1,2-4.5,3.2-7.1,3.5c-2.4,0.3-5.5-0.3-9.3-1.6
		c-7.1-2.5-13.5-3.5-19.1-2.8c-11.8,1.4-21.6,8.6-29.6,21.5c-4,6.5-7,13.6-9,21.3C90,303.9,89,312.2,89,321c0,9.6,0.9,18.1,2.8,25.5
		c1.9,7.4,4.8,13.6,8.6,18.7C108.1,375.3,118.4,379.5,131.4,377.7z"/>
	<path class="st0" d="M237.5,351.4c-3.5,3.9-6.9,7.8-10.3,11.7c11.5-1.2,23-2.3,34.5-3.3c-3.1-3-6.1-6-9.1-9c0-15.8,0-31.5,0-47.3
		c0-15.8,0-31.5,0-47.3c3.4-4.3,6.9-8.6,10.4-12.9c-11.6,0.9-23.1,1.9-34.7,2.9c3,3.1,6.1,6.3,9.2,9.4c0,7,0,13.9,0,20.9
		c0,7,0,13.9,0,20.9c-3.7,1-8.2,1.8-13.4,2.3c-3.5,0.3-7.3,0.5-11.1,0.4c-0.9,0-1.7,0-2.5,0c0-6.3,0-12.7,0-19c0-6.3,0-12.7,0-19
		c2.5-3.3,5.1-6.7,7.7-10c-0.5-0.5-1-1-1.5-1.5c-2.7,3.6-5.5,7.1-8.2,10.7c0,6.5,0,13,0,19.5c0,6.5,0,13,0,19.5
		c-1.5,0.1-2.9,0-4-0.1c0-6.6,0-13.1,0-19.7c0-6.6,0-13.1,0-19.7c3.4-4.4,6.8-8.8,10.2-13.1c-11.8,1.2-23.5,2.3-35.3,3.5
		c3.3,3.4,6.7,6.8,10,10.1c0,6.9,0,13.7,0,20.6c0,6.8,0,13.7,0,20.5c-6.6,2.3-11.4,8.1-14.4,17.2c0.3,0.3,0.7,0.5,1.1,0.8
		c3.2-5.5,7.7-8.6,13.2-9.2c0,1.1,0,2.2,0,3.4c-4.8,1-8.7,3.9-11.6,8.7c0.5,0.3,1,0.5,1.5,0.7c2.5-4.3,5.9-6.7,10-7.1
		c0,6.7,0,13.3,0,20c0,6.6,0,13.3,0,19.9c-3.3,4-6.7,7.9-10,11.9c11.5-1.4,23-2.7,34.6-3.9c-3.2-2.9-6.4-5.8-9.6-8.8
		c0-7.5,0-15.1,0-22.6c0-7.5,0-15.1,0-22.6c0.9,0,1.5,0,1.7,0c2.5,0,5,0,7.5,0.1c1.5,0,4-0.1,7.3-0.5c6.2-0.6,11.7-1.6,16.4-2.9
		c0,1.1,0,2.2,0,3.3c-3.5,2-7.7,3.3-12.5,3.7c-3,0.3-7.7,0.4-14.3,0.4c-0.7,0-1.5,0-2.2,0c0,7,0,14,0,21c0,7,0,14,0,21
		c3.4,4.2,6.8,8.3,10.2,12.5c-12.2,1.4-24.4,2.7-36.5,4.2c0.6,0.7,1.3,1.5,1.9,2.2c12.9-1.5,25.8-3,38.7-4.4
		c-4.1-5.3-8.3-10.7-12.4-16c0-6.4,0-12.8,0-19.3c0-6.4,0-12.8,0-19.3c0.3,0,0.7,0,1.1,0c4.4,0.1,8.8,0,13-0.4
		c4.5-0.4,8.8-1.5,13-3.2c0,6.4,0,12.8,0,19.2C237.5,338.6,237.5,345,237.5,351.4z"/>
	<path class="st0" d="M258.5,304c0-15.4,0-30.8,0-46.3c2.5-3.2,5.1-6.4,7.7-9.6c-0.4-0.6-0.8-1.2-1.2-1.8c-2.8,3.5-5.5,7.1-8.3,10.6
		c0,15.8,0,31.5,0,47.2c0,15.8,0,31.5,0,47.3c3.3,4.3,6.6,8.6,10,12.8c-12.2,1.1-24.3,2.2-36.4,3.5c0.6,0.7,1.2,1.5,1.9,2.2
		c12.9-1.3,25.9-2.5,38.8-3.6c-4.1-5.4-8.3-10.7-12.4-16.1C258.5,334.9,258.5,319.4,258.5,304z"/>
	<path class="st0" d="M334.9,313.9c0.6,0.4,1.2,0.7,1.9,1.1c0-6.6,0-13.3,0-19.9c0-6.6,0-13.3,0-19.9c-0.7-0.4-1.3-0.7-1.9-1.1
		c0,6.6,0,13.3,0,19.9C334.9,300.6,334.9,307.2,334.9,313.9z"/>
	<path class="st0" d="M344.8,268.4c0.4,0.6,0.8,1.2,1.3,1.8c2-6.7,6.1-15.1,12.2-25.2c0.1-0.3,0.3-0.5,0.5-0.8
		c-0.3-0.6-0.7-1.2-1-1.9C352.4,250.3,348.2,259,344.8,268.4z"/>
	<path class="st0" d="M286.8,345.9c-3.8,3.8-7.6,7.5-11.4,11.4c28-2.2,56-3.9,84-5.3c-4.5-5.1-7.6-9.6-9.6-13.4
		c-1.9-3.9-3.5-9.1-4.8-15.6c-0.5,1-0.8,1.7-0.9,2c-1.3,2.8-2.7,5.6-4,8.4c-2.4,5.2-5.8,8.9-10.1,10.8c-4.3,2-11.6,3.3-21.8,4
		c0-7.3,0-14.7,0-22.1c0-7.4,0-14.7,0-22.1c5.5-0.3,11-0.7,16.4-1c-0.7-0.7-1.3-1.4-1.9-2.1c-5.5,0.3-11,0.7-16.4,1
		c0,7.7,0,15.5,0,23.2c0,7.7,0,15.5,0,23.2c-1.5,0.1-3.1,0.2-4.6,0.3c0-8.4,0-16.9,0-25.3c0-8.4,0-16.9,0-25.3
		c6.7-0.4,13.6-0.8,20.4-1.3c3.2,4.8,6.4,9.6,9.7,14.4c0-6.4,0-12.9,0-19.3c0-6.4,0-12.9,0-19.4c-3.3,5.5-6.5,11-9.7,16.5
		c-4.7,0.3-9.3,0.6-13.9,0.8c0-5.7,0-11.5,0-17.2c0-5.7,0-11.5,0-17.2c0.5,0,1.1-0.1,1.6-0.2c4.1-0.5,6.9-0.8,8.5-0.9
		c5.3-0.3,8.9-0.1,10.7,0.5c1.8,0.7,4.7,2.8,8.8,6.5c0.3,0.3,0.8,0.7,1.5,1.3c-2.4-4.5-5.1-7.6-8.1-9.1c-3-1.5-7.7-2.1-14-1.7
		c-3.5,0.2-7.1,0.6-11,1.3c0,6.1,0,12.3,0,18.4c0,6.1,0,12.3,0,18.4c-1.5,0.1-3.1,0.2-4.6,0.3c0-6.9,0-13.9,0-20.8
		c0-6.9,0-13.9,0-20.8c5.3-0.6,9.8-1,13.5-1.2c8.1-0.5,13.8,0.3,16.9,2.3c3.1,1.9,6.1,6.5,8.8,13.6c0.3,0.7,0.6,1.7,1.1,3
		c3-9.8,7-18.6,12.1-26.3c0.4-0.6,0.8-1.2,1.2-1.8c-26.7,1.1-53.3,2.6-79.9,4.4c3.8,3.4,7.6,6.7,11.4,10.1c0,6.4,0,12.9,0,19.4
		c0,6.5,0,12.9,0,19.4c-8.2,0.6-13.4,5.8-15.8,15.5c4.2-4.8,8.9-7.4,14-7.7c0.3,0,0.9,0,1.8,0c0,1.4,0,2.8,0,4.3
		c-5.3,1.1-9.4,3.1-12.4,6c0.3,0.6,0.7,1.2,1,1.8c3.4-2.8,7.2-4.7,11.4-5.6c0,6.7,0,13.5,0,20.2
		C286.8,332.5,286.8,339.2,286.8,345.9z"/>
	<path class="st0" d="M366.6,350.8c-6.5-7.4-11.2-14.9-14-22.4c-0.8-0.3-1.6-0.6-2.4-1c2.9,8.9,8,17.2,15.2,24.8
		c-0.9,1.9-1.7,3.9-2.5,5.8c-27.4,1.3-54.7,3-82,5.1c0.4,0.8,0.8,1.5,1.2,2.3c27.3-2,54.5-3.7,81.8-5c1.3-2.7,2.5-5.5,3.9-8.2
		C367.3,351.7,366.9,351.3,366.6,350.8z"/>
	<path class="st0" d="M454.2,350.4c-4.6-7.5-8.6-15.8-12-24.6c-0.2-0.5-0.4-1-0.5-1.5c-0.8-0.4-1.6-0.7-2.4-1.1
		c0.1,0.3,0.1,0.7,0.3,1c3.3,9.9,7.7,18.9,13.2,27.1c-0.7,1.9-1.5,3.7-2.2,5.6c-26.5-0.1-52.8,0.2-79.2,0.9c0.6,0.8,1.2,1.6,1.9,2.3
		c26.1-0.7,52.1-1,78.2-0.8c1.1-2.7,2.3-5.3,3.4-8C454.6,351,454.4,350.7,454.2,350.4z"/>
	<path class="st0" d="M379.6,342.4c-3.5,3.5-6.9,6.9-10.4,10.4c26.1-0.7,52.1-1.1,78.2-1c-2.5-3-5-7.3-7.4-12.8
		c-2.4-5.6-4.7-12.5-7.1-20.6c-1.4,9.6-4.1,16.6-8.1,20.8c-4.1,4.3-10.1,6.4-18,6.5c-2.1,0-4.2,0-6.4-0.3c0-15.7,0-31.4,0-47.1
		c0-15.7,0-31.4,0-47.1c2.4-3,4.8-6,7.2-9c-0.4-0.7-0.7-1.3-1.1-2c-2.7,3.3-5.3,6.6-8,9.9c0,15.9,0,31.8,0,47.7
		c0,15.9,0,31.8,0,47.7c-0.3,0-0.5,0-0.7,0c-0.9-0.1-1.9-0.1-2.7-0.2c-0.2,0-0.4,0-0.6,0c0-16,0-32,0-48c0-16,0-32,0-48
		c3.5-4.2,7-8.3,10.6-12.5c-12,0.2-23.8,0.4-35.7,0.8c3.4,3.7,6.9,7.4,10.4,11.1c0,15.6,0,31.3,0,46.9
		C379.6,311.2,379.6,326.8,379.6,342.4z"/>
	<path class="st0" d="M475.6,322c1.9,12.2,7.5,20.1,16.8,23.7c0-0.3,0-0.5,0-0.7c-8-4.7-13-12.5-14.8-23.3
		C477,321.7,476.3,321.9,475.6,322z"/>
	<path class="st0" d="M467.5,354.9c3.2,0.1,6.1,0.6,9,1.5c3.9,1.3,7.9,2.6,12,3.9c4.3,1.5,9.3,2.4,14.6,2.7c10.6,0.5,19.6-3,27-10.5
		c7.3-7.5,11.1-16.9,11.1-28.3c0-10.7-3.4-19.4-10.2-26c0,0.2,0,0.4,0,0.6c5.5,7.2,8.2,15.4,8.2,24.6c0,10.8-3.5,19.8-10.6,27
		c-7,7.2-15.6,10.6-25.5,10.1c-5.1-0.2-10-1.1-14.6-2.6c-3.9-1.2-7.7-2.5-11.6-3.7c-3.8-1.2-7.3-1.9-10.3-1.9
		c-2.7-0.1-5.3,0.6-7.9,2.1c0.3,0.9,0.5,1.8,0.9,2.6C462.1,355.4,464.7,354.8,467.5,354.9z"/>
	<path class="st0" d="M495.9,250.3c6.3,0.3,12.2,4,17.8,11.3c0.1-0.1,0.3-0.2,0.5-0.3c-1.5-4-3.9-7.2-7.1-9.5
		c-3.2-2.3-7-3.6-11.3-3.7c-4.5-0.2-8.1,1.1-11,4c-2.8,2.9-4.2,6.6-4.2,11.2c0,6.7,3.3,11.9,10,15.7c0.1-0.2,0.3-0.4,0.4-0.7
		c-0.2-0.2-0.4-0.3-0.6-0.5c-5.1-4.8-7.7-9.5-7.7-13.9c0-4.1,1.3-7.4,3.7-10C489,251.3,492.1,250.1,495.9,250.3z"/>
	<path class="st0" d="M511.6,315.9c2.6,1.6,5.1,4,7.3,7.2c0.2-0.1,0.4-0.2,0.6-0.3c-1.2-3.6-3.1-6.4-5.8-8.3
		c-2.7-1.9-8.2-4.3-16.4-7.1c-4.1-1.4-8.1-2.8-12.1-4.1c-8-2.6-12.8-5.6-14.4-9.2c-0.9-0.6-1.7-1.2-2.5-1.8c0.7,3.8,2.9,6.8,6.6,9.1
		c3.7,2.3,10.9,5.1,21.6,8.5C504,312.3,509,314.3,511.6,315.9z"/>
	<path class="st0" d="M456.6,350.2c3.3-2.2,6.4-3.3,9.4-3.2c2.3,0,5.2,0.6,8.8,1.7c2.9,1,5.8,1.9,8.8,2.9c7,2.3,13.4,3.6,19.1,3.9
		c9,0.4,16.7-2.5,22.8-8.8c6.1-6.3,9.2-14.4,9.2-24.1c0-8.8-2.3-16.2-6.8-22.1c-4.5-5.9-11.2-10.4-20.2-13.5
		c-4.2-1.4-8.4-2.8-12.6-4.2c-12.7-4.1-19-11.1-19-21.2c0-5.3,1.8-9.8,5.3-13.2c3.5-3.4,8-5,13.4-4.8c5.8,0.2,11,2.9,15.6,7.9
		c1.7,2,3.1,4.1,4,6.2c0.9,2.1,2.1,5.9,3.5,11.3c0.1,0.4,0.2,0.9,0.5,1.5c0.1-0.2,0.2-0.3,0.3-0.5c1-2,3-7.4,6.1-16.2
		c1.5-4.5,3.6-8.8,6.2-12.8c-0.3-0.2-0.5-0.3-0.8-0.5c-2.9,1.9-5.6,2.8-8,2.7c-1.7-0.1-4.5-0.8-8.1-2.2c-7.8-2.8-14.6-4.4-20.4-4.6
		c-9.2-0.3-16.5,2.4-22.2,8.1c-5.7,5.7-8.5,13.3-8.5,22.8c0,9.2,2.1,16.3,6.3,21.5c4.3,5.3,11.1,9.1,20.5,11.7
		c12.2,3.4,20.3,6.9,24.2,10.4c5.5,5,8.2,11.1,8.2,18.4c0,6.3-1.9,11.2-5.9,14.7c-3.9,3.5-9.3,5.1-16,4.8
		c-8.5-0.4-15.3-3.3-20.5-8.6c-5.3-5.4-8.4-12.8-9.5-22.1c-0.5-0.2-0.9-0.3-1.3-0.5c-2.5,10-6.8,20.6-13,31.6
		C456.2,349.3,456.4,349.7,456.6,350.2z"/>
	<path class="st0" d="M521.6,271.9c0.6,0.3,1.2,0.7,1.8,1c0.1-0.2,0.2-0.4,0.3-0.6c0.5-1,2.5-5.8,5.9-14.4c1.5-3.7,3.2-7.5,5.2-11.6
		c0.2-0.5,0.5-0.9,0.7-1.3c-0.7-0.4-1.3-0.8-2-1.3c-0.1,0.2-0.3,0.5-0.3,0.7c-1.7,3.9-3.4,7.7-5.1,11.6c-2.8,6.2-4.9,11.3-6.3,15.1
		C521.7,271.4,521.6,271.7,521.6,271.9z"/>
	<path class="st0" d="M606.5,300.6c0,6.7,0,13.3,0,20c0.6,0.5,1.2,0.9,1.9,1.4c0-6.7,0-13.3,0-20c0-6.7,0-13.3,0-20
		c-0.7-0.5-1.3-0.9-1.9-1.4C606.5,287.3,606.5,293.9,606.5,300.6z"/>
	<path class="st0" d="M558.4,345.3c-3.8,3.2-7.6,6.4-11.4,9.5c27.9,2.2,55.9,4.7,83.9,7.6c-4.4-5.8-7.6-10.8-9.5-15
		c-1.9-4.2-3.6-9.7-4.9-16.4c-0.5,0.9-0.7,1.6-0.9,1.9c-1.3,2.6-2.7,5.3-4,7.9c-2.5,4.9-5.8,8-10.2,9.3c-4.3,1.3-11.6,1.5-21.8,0.6
		c0-7.3,0-14.7,0-22c0-7.3,0-14.7,0-22c5.5,0.5,11,0.9,16.5,1.4c-0.7-0.8-1.3-1.6-2-2.4c-5.5-0.5-10.9-0.9-16.3-1.4
		c0,7.7,0,15.4,0,23.1c0,7.7,0,15.4,0,23.1c-1.5-0.1-3.1-0.3-4.6-0.4c0-8.4,0-16.8,0-25.2c0-8.4,0-16.8,0-25.3
		c6.7,0.6,13.5,1.1,20.3,1.7c3.2,5.3,6.5,10.6,9.8,15.9c0-6.5,0-12.9,0-19.4c0-6.5,0-12.9,0-19.4c-3.3,5.1-6.5,10.1-9.8,15.2
		c-4.7-0.4-9.3-0.8-13.9-1.1c0-5.7,0-11.4,0-17.2c0-5.7,0-11.4,0-17.2c0.5,0,1.1,0,1.6,0c4.1,0,6.9,0.1,8.6,0.3
		c5.3,0.4,8.9,1.1,10.6,2c1.9,0.9,4.8,3.5,8.8,7.7c0.3,0.3,0.8,0.9,1.5,1.5c-2.3-4.9-5-8.3-8-10.2c-3.1-1.9-7.7-3.1-14.1-3.6
		c-3.5-0.3-7.1-0.3-10.9-0.3c0,6.1,0,12.3,0,18.4c0,6.1,0,12.3,0,18.4c-1.5-0.1-3.1-0.3-4.6-0.4c0-6.9,0-13.9,0-20.8
		c0-6.9,0-13.9,0-20.8c5.2,0.1,9.7,0.3,13.5,0.6c8.1,0.7,13.7,2.2,16.8,4.6c3.1,2.4,6.1,7.3,8.8,14.8c0.3,0.7,0.7,1.8,1.1,3.2
		c3-9.5,7.1-17.8,12.2-24.8c0.4-0.6,0.8-1.1,1.2-1.6c-26.7-2.4-53.3-4.5-79.9-6.4c3.7,3.8,7.5,7.7,11.4,11.6c0,6.4,0,12.8,0,19.3
		c0,6.4,0,12.8,0,19.3c-8.1-0.6-13.4,3.8-15.7,13.1c4.2-4.1,8.8-6.1,13.9-5.7c0.3,0,1,0.1,1.8,0.3c0,1.4,0,2.8,0,4.2
		c-5.2,0.4-9.4,1.8-12.4,4.1c0.3,0.7,0.7,1.3,1.1,2c3.4-2.3,7.1-3.6,11.4-3.9c0,6.7,0,13.4,0,20.1
		C558.4,331.9,558.4,338.6,558.4,345.3z"/>
	<path class="st0" d="M624.3,337.8c-0.8-0.4-1.6-0.9-2.4-1.3c2.9,9.4,8,18.5,15.2,27.3c-0.9,1.8-1.7,3.6-2.5,5.4
		c-27.3-2.9-54.6-5.4-82-7.7c0.4,0.8,0.8,1.7,1.2,2.5c27.3,2.2,54.5,4.8,81.8,7.7c1.3-2.5,2.5-5.1,3.9-7.7c-0.4-0.5-0.8-1.1-1.2-1.6
		C631.7,354,627.1,345.8,624.3,337.8z"/>
	<path class="st0" d="M617.7,278.4c2.1-6.5,6.1-14.4,12.2-23.7c0.1-0.2,0.3-0.5,0.5-0.7c-0.4-0.7-0.7-1.4-1.1-2
		c-5.3,7.3-9.6,15.5-13,24.5C616.8,277,617.2,277.7,617.7,278.4z"/>
	<path class="st0" d="M745.6,378.7c-3.7-4.1-7.5-8.2-11.2-12.3c-2.3-7.8-4.6-15.7-6.8-23.5c-2.2-7.8-4.5-15.7-6.7-23.5
		c2.2-1.5,5.7-2,10.4-1.4c0.6,0.1,1.7,0.3,3.1,0.6c-2.7-5.9-4.7-12.4-6-19.6c-0.4,0.6-1.3,1.5-2.8,2.8c-0.9,0.7-1.7,1.5-2.5,2.2
		c-0.1,0.1-0.4,0.4-1,0.9c-1.8-5.9-3.5-11.9-5.3-17.8c-1.7-5.9-3.5-11.9-5.2-17.8c2.5-3.3,5-6.6,7.5-9.9c-0.7-0.4-1.3-0.8-1.9-1.2
		c-2.7,3.4-5.3,6.9-7.9,10.3c1.8,6.3,3.7,12.5,5.5,18.7c1.8,6.3,3.7,12.5,5.6,18.8c-1,0.6-2,1.1-3,1.7c-2.1-6.9-4.2-13.9-6.2-20.8
		c-2-6.9-4.1-13.8-6.1-20.8c2.6-3.3,5.2-6.6,7.8-9.9c-11.6-1.3-23-2.6-34.5-3.9c2.6,3.8,5.3,7.5,7.9,11.3c-1.7,5.5-3.5,11-5.1,16.5
		c-1.7,5.5-3.3,11-5,16.5c-2.5-3.1-5-5.8-7.7-8.2c-0.4,0.6-0.8,1.2-1.1,1.8c0.2,0.2,0.4,0.5,0.6,0.7c1.7,1.8,3.8,4.2,6.3,7.2
		c0.3,0.3,0.5,0.7,0.9,1c-0.5,1.3-0.9,2.6-1.3,3.9c-1.6-1.6-3-3.1-4.1-4.6c-1.1-1.4-2.3-2.8-3.3-4.2c-0.1-0.2-0.6-0.7-1.3-1.6
		c-1.5,5.2-3.6,10.2-6.3,14.8c4.9,1.2,8.8,3.3,11.4,6.3c-0.1,0.4-0.3,0.8-0.3,1.2c-2.1,7.7-4.1,14.3-6.1,20
		c-2,5.6-4.1,10.2-6.2,13.7c-4.1,7.1-9.8,12.5-17,16.1c12.5,1.4,25,3,37.5,4.5c-0.7-0.9-1.1-1.5-1.4-1.9c-3-4.3-5-7.6-5.9-9.9
		c-0.9-2.4-1.5-5.3-1.5-8.6c0-3.3,0.7-7.3,2.1-12.2c0.8-3,1.6-6,2.5-9c1-3.6,1.8-6.4,2.5-8.3c1.1,1.5,2.1,3.1,3.3,4.6
		c-4.2,11.8-6.3,20.8-6.3,27c0,3.6,0.5,6.9,1.5,9.7c1.1,2.8,3.2,6.9,6.5,12.2c0.4,0.7,0.8,1.4,1.3,2.1c-12.8-1.6-25.5-3.2-38.1-4.7
		c0.5,0.8,1,1.7,1.5,2.6c13.4,1.6,26.9,3.3,40.4,5c-0.7-1.3-1.3-2.2-1.7-2.8c-4.1-6.7-6.7-11.5-7.9-14.3c-1.1-2.8-1.6-6.1-1.6-9.9
		c0-6.5,1.9-14.7,5.9-24.6c0.2,0.4,0.5,0.8,0.7,1.2c4,6.9,7.3,13.1,10,18.5c0.4,0.9,0.9,1.9,1.3,2.8c3.9-7.5,8.8-13.8,14.8-19.1
		c0.5,1.4,0.9,2.8,1.4,4.2c-0.2,0.3-0.4,0.6-0.6,0.8c-5.8,6.7-10.2,12.8-13.2,18.3c0.5,0.3,1.1,0.5,1.7,0.8
		c2.9-5.7,7.1-11.6,12.6-17.7c2.7,9.3,5.5,18.6,8.3,27.9c-3.5,3.1-6.9,6.2-10.4,9.2C720.3,375,732.9,376.9,745.6,378.7z M694.8,330
		c-0.4,0.5-0.7,0.9-1.1,1.4c0,0.1-0.3,0.4-0.7,0.9c-0.5-0.8-0.7-1.2-0.7-1.3c-1.1-2.1-2.3-4.2-3.4-6.3c-2.8-5-6.1-10-9.8-15.2
		c1.9-6.1,3.9-12.3,5.9-18.5c1.9-6.2,4-12.3,6-18.5c0.7,2.4,1.3,4.9,2.1,7.3c-3.2,9.9-6.4,19.9-9.6,29.8c4.6,5.8,8.7,12.3,12.2,19.3
		C695.3,329.4,694.9,329.7,694.8,330z M696.9,327.3c-0.3-0.5-0.5-1-0.7-1.5c-2.5-5-4.6-8.6-6.3-11c-1.1-1.5-2.1-3-3.1-4.6
		c-0.1-0.1-0.3-0.5-0.7-1.2c2.7-8.5,5.5-17,8.2-25.6c1.7,5.8,3.4,11.6,5.1,17.5c1.7,5.8,3.5,11.7,5.2,17.5
		C701.6,321.4,699.1,324.3,696.9,327.3z"/>
	<path class="st0" d="M740.2,367.3c-2.1-7.1-4.2-14.2-6.3-21.3c-2.1-7.1-4.1-14.2-6.2-21.2c0.8,0,1.3,0.1,1.5,0.1
		c1.2,0.2,3.2,0.6,5.9,1.3c2,0.5,4,1,6.1,1.4c0.1,0,0.8,0.2,1.9,0.6c-4.4-10.3-7.1-18.2-8.2-23.9c-0.8-0.7-1.6-1.4-2.3-2
		c1.1,6,3.2,12.8,6.4,20.5c0.3,0.7,0.6,1.4,0.9,2.1c-3.3-1-6.3-1.6-9-2c-2.1-0.3-4.1-0.3-5.8,0c2.2,7.5,4.4,15,6.6,22.6
		c2.2,7.5,4.5,15.1,6.7,22.6c4.5,5.6,9,11.1,13.4,16.6c-13.3-2-26.5-3.9-39.7-5.8c0.5,0.9,0.9,1.8,1.4,2.6
		c14.4,2.1,28.9,4.2,43.4,6.3C751.4,381.1,745.8,374.2,740.2,367.3z"/>
	<path class="st0" d="M289.8,185l32.8-2.4c5.7-0.3,11.3-0.6,17-0.9V169c-14,6.6-39.4,11.7-63.4,15.3c-2.6,0.4-11.1,1.2-12.8,1.3
		c-3.4,0.3-6.8,0.6-10.1,1c-7.2,0.7-14.4,1.5-21.6,2.3c-7.3,0.8-14.6,1.7-21.9,2.5c-7.4,0.9-14.9,1.8-22.3,2.8
		c-7.6,1-15.2,2-22.8,3.1c-11.8,1.7-24.2,3.6-35.8,5.5v1.7c11.7-1.9,24.1-3.8,36-5.5C208.6,192.8,249.9,188.2,289.8,185z"/>
	<path class="st0" d="M556.1,185c39.9,3.2,81.2,7.8,125.1,14c11.9,1.7,24.4,3.6,36,5.5v-1.7c-11.6-1.9-24-3.8-35.8-5.5
		c-7.6-1.1-15.2-2.1-22.8-3.1c-7.4-1-14.9-1.9-22.3-2.8c-7.3-0.9-14.6-1.7-21.9-2.5c-7.2-0.8-14.4-1.6-21.6-2.3
		c-3.4-0.3-6.8-0.7-10.1-1c-1.7-0.2-3.4-0.3-5.1-0.5c-2.6-0.2-5.2-0.5-7.8-0.9c-24-3.7-49.5-8.7-63.4-15.3v12.8
		c5.6,0.3,11.3,0.6,17,0.9L556.1,185z"/>
	<path class="st0" d="M423,135.3c0.8,0,1.5-0.7,1.5-1.5c0-0.4-0.2-0.8-0.5-1.1c-0.3-0.3-0.7-0.4-1.1-0.4h0c-0.8,0-1.5,0.7-1.5,1.5
		c0,0.4,0.2,0.8,0.4,1.1C422.2,135.1,422.6,135.3,423,135.3z"/>
	<path class="st0" d="M348.6,176.4l-0.1,4.7v0.1l0.3,0c1.5-0.2,3.1-0.4,4.8-0.5l0.1-5.8c0.1-4.1,0.1-5.5,0.1-6
		c0-0.3,0.1-0.6,0.3-0.8c0.2-0.2,0.5-0.4,0.8-0.4c0.7,0,1.2,0.5,1.2,1.2l-0.1,11.5c0.8-0.1,1.6-0.2,2.4-0.2
		c0.2-12.1,0.2-14.7,0.2-15.3c0-0.3,0.1-0.6,0.3-0.8c0.2-0.2,0.5-0.4,0.8-0.4c0.7,0,1.2,0.5,1.2,1.2l-0.2,15.1
		c0.8-0.1,1.6-0.1,2.4-0.2l0.1-8.3c0.1-6.1,0.1-8,0.1-8.5c0-0.3,0.1-0.6,0.3-0.9c0.2-0.2,0.5-0.4,0.8-0.4c0.7,0,1.2,0.5,1.2,1.2
		l-0.2,16.6c0.8-0.1,1.6-0.1,2.4-0.2c0-1,0.1-5.1,0.1-9.2c0-2.4,0.1-4.8,0.1-6.5c0-1.8,0-2.6,0.1-3c0-0.6,0.5-1.2,1.2-1.2
		c0.7,0,1.2,0.5,1.2,1.2c0,0-0.2,14.8-0.3,18.6c0.8-0.1,1.6-0.1,2.4-0.2c0-1.1,0.1-5.4,0.1-9.7c0-2.5,0.1-5,0.1-6.9
		c0-1.9,0-2.8,0.1-3.1c0-0.7,0.5-1.2,1.2-1.2c0.7,0,1.2,0.5,1.2,1.2c0,0-0.2,16.5-0.3,19.6c0.8,0,1.6-0.1,2.4-0.1l0.1-10.2
		c0-2.6,0.1-5.2,0.1-7.2c0-2,0-2.9,0.1-3.3c0-0.7,0.5-1.2,1.2-1.2c0.7,0,1.2,0.5,1.2,1.2c0,0-0.2,16.5-0.3,20.6
		c0.8,0,1.6-0.1,2.4-0.1c0-1.1,0.1-5.8,0.1-10.4c0-2.7,0.1-5.3,0.1-7.4c0-2.1,0-3,0.1-3.3c0-0.7,0.5-1.2,1.2-1.2
		c0.3,0,0.6,0.1,0.8,0.3c0.2,0.2,0.4,0.6,0.4,0.9l-0.3,21c0.8,0,1.6-0.1,2.4-0.1c0-1.1,0.1-5.8,0.1-10.5c0-2.7,0.1-5.4,0.1-7.4
		c0-2.1,0-3,0.1-3.4c0-0.7,0.5-1.2,1.2-1.2c0.3,0,0.6,0.1,0.8,0.3c0.2,0.2,0.4,0.6,0.4,0.9l-0.3,21.1c0.8,0,1.6-0.1,2.4-0.1
		l0.3-20.9l0-0.1c0.1-0.9,0.8-1,1.2-1c0.4,0,0.7,0.1,0.9,0.3c0.4,0.4,0.4,1.1,0.3,1.7c0,0.1,0,0.2,0,0.3l-0.2,19.6
		c0.8,0,1.6,0,2.4-0.1c0-1.1,0.1-5.5,0.1-9.9c0-2.5,0.1-5.1,0.1-7c0-2,0-2.8,0.1-3.2c0-0.6,0.5-1.2,1.2-1.2c0.7,0,1.2,0.5,1.2,1.2
		c0,0-0.2,16.8-0.3,19.9c0.8,0,1.6,0,2.4-0.1l0.2-12.8c0-0.7,0-1.3,0-2c0-1.3,0-2.5,0-3.8c0-1.1,0.5-1.7,1.3-1.7
		c0.3,0,0.6,0.1,0.8,0.3c0.4,0.4,0.4,1.2,0.4,1.9c0,0.1,0,0.2,0,0.3l-0.2,17.7c0.8,0,1.6,0,2.4,0c0-2.2,0.3-17.6,0.3-17.7
		c0-0.3,0.1-0.6,0.3-0.8c0.2-0.2,0.5-0.4,0.8-0.4c0.7,0,1.2,0.5,1.2,1.2c0,0.1-0.2,14.9-0.2,17.7l2.4,0l0.1-7.7
		c0.1-5.7,0.1-7.5,0.1-8c0-0.3,0.1-0.6,0.3-0.8c0.2-0.2,0.5-0.4,0.8-0.4c0.7,0,1.2,0.5,1.2,1.2l-0.2,15.7c0.9,0,1.8,0,2.7,0
		c0.1-10.3,0.2-12.8,0.2-13.4c0-0.7,0.5-1.2,1.2-1.2c0.7,0,1.2,0.5,1.2,1.2l-0.2,13.4c0.9,0,1.7,0,2.6,0c0-0.8,0-3.3,0.1-5.7
		c0.1-4.1,0.1-6,0.1-6c0.1-0.6,0.6-1.1,1.2-1.1c0.6,0,1.1,0.5,1.2,1.1v0.1l0,11.6c0.9,0,1.7,0,2.6,0c-0.1-3.4-0.3-13-0.3-13.1
		c0-0.7,0.5-1.2,1.2-1.2c0.7,0,1.2,0.5,1.2,1.2l0.3,13.1c0.9,0,1.8,0,2.7,0c-0.4-15.4-0.4-15.4-0.4-15.5c0-0.6,0.5-1.2,1.2-1.2
		c0.7,0,1.2,0.5,1.2,1.2l0.4,15.5l2.4,0c-0.1-2.4-0.5-17.4-0.5-17.5c0-0.7,0.5-1.2,1.2-1.2c0.7,0,1.2,0.5,1.2,1.2
		c0,0.2,0.4,15.3,0.5,17.5c0.8,0,1.6,0,2.4,0c-0.1-3-0.5-18.8-0.5-18.9c0-0.3,0.1-0.6,0.3-0.8c0.2-0.2,0.5-0.4,0.8-0.4
		c0.7,0,1.2,0.5,1.2,1.2c0,0.1,0.5,16.6,0.5,18.9l2.4,0.1c-0.1-5-0.5-19.8-0.5-19.8c0-0.7,0.5-1.2,1.2-1.2c0.6,0,1.2,0.5,1.2,1.2
		l0.5,19.9c0.8,0,1.6,0.1,2.4,0.1c0-1.2-0.1-5.7-0.2-10.3c-0.1-2.7-0.1-5.3-0.2-7.3c0-2.2-0.1-3.1,0-3.4c0.2-0.5,0.6-0.9,1.1-0.9
		c1.2,0,1.2,1.2,1.2,1.9v0.2l0.5,19.9c0.8,0,1.6,0.1,2.4,0.1c-0.1-2.6-0.5-20.8-0.5-21.1c0-0.7,0.5-1.2,1.2-1.2
		c0.6,0,1.2,0.6,1.2,1.2c0,0.1,0.5,18.8,0.5,21.3c0.8,0,1.6,0.1,2.4,0.1c-0.1-2.6-0.5-20.8-0.5-21.1c0-0.3,0.1-0.6,0.3-0.9
		c0.2-0.2,0.5-0.4,0.8-0.4c0.6,0,1.2,0.5,1.2,1.2l0.5,21.2c0.8,0,1.6,0.1,2.4,0.1c-0.2-6.5-0.5-20.7-0.5-20.7c0-0.7,0.5-1.2,1.2-1.2
		c0.6,0,1.2,0.5,1.2,1.2l0.5,20.9c0.8,0,1.6,0.1,2.4,0.1c-0.1-5-0.5-19.7-0.5-19.7c0-0.7,0.5-1.2,1.2-1.2c0.6,0,1.2,0.5,1.2,1.2
		l0.5,19.9c0.8,0,1.6,0.1,2.4,0.1c-0.1-4.8-0.5-18.7-0.5-18.8c0-0.3,0.1-0.6,0.3-0.8c0.2-0.2,0.5-0.4,0.8-0.4c0.6,0,1.2,0.5,1.2,1.2
		l0.5,19c0.8,0.1,1.6,0.1,2.4,0.2c-0.1-3.5-0.4-16.8-0.4-16.9c0-0.7,0.5-1.2,1.2-1.2c0.7,0,1.2,0.5,1.2,1.2l0.4,17.1
		c0.8,0.1,1.6,0.1,2.4,0.2c-0.1-3.2-0.4-15.4-0.4-15.5c0-0.7,0.5-1.2,1.2-1.2c0.7,0,1.2,0.5,1.2,1.2l0.4,15.7l0.2,0
		c0.7,0.1,1.5,0.1,2.2,0.2c0-1.9-0.3-11.8-0.3-11.9c0-0.7,0.5-1.2,1.2-1.2c0.7,0,1.2,0.5,1.2,1.2l0.3,12.2c1.4,0.1,3.5,0.3,4.9,0.4
		v-1c-0.1-1.2-0.1-2.3-0.1-3.1l0-5.7c0-2.4,0-4.7,0-7.1c0-3,0.2-6-0.9-8.9c-2.8-8.9-12.9-13.8-25.6-15.8c-0.5,0-6.4,3-8.8,4.2
		c-1.2,0.6-2.5,1.3-3.8,1.7c-4.2,1.5-9.4-0.5-9.3-5.5c0.1-3.4,2.3-5.5,5.2-5.4c0.5,0,1,0.1,1.4,0.3c0.3-0.2,0.9-1.1,1.2-1.3
		c-7.8-4.2-19.6-7.6-33-8h-5.9c-18.3,0.6-33.3,6.2-37.9,13.4c-15,1.5-27.4,6.4-30.5,16.4c-1.6,5-0.9,10.8-0.9,15.9L348.6,176.4z
		 M475.4,144.3c0,0,4.1-0.1,9.2,3c3.2,1.9,5.3,4.7,7.4,8c0,0.1,0.6,1.2,0.6,1.2l-0.5,0.1c-7.5-10.3-16.7-11.7-16.7-11.7L475.4,144.3
		z M412.6,145.1c1.6,0.8,3.2,1.7,4.9,2.5l0.6,0.3l-0.5,0.4c-0.2,0.2-0.5,0.4-0.7,0.5c-0.1,0.1-0.3,0.1-0.4,0.1h-0.1
		c-0.2,0-0.3,0-0.5,0c0,0,0,0,0,0c0.7,0.9,1.5,1.6,2.1,2.2c0.5,0.4,1.1,0.8,1.8,1.1c0.2,0.1,0.4,0.1,0.5,0.1c0.2,0,0.4,0,0.6-0.6
		c0.2-0.6,0.3-1.2,0.4-1.7c0.1-1,0.2-2.1,0.2-3.1c0-0.7,0-1.4,0.1-2c0-0.4,0-0.7,0-1.1c0-0.4,0-0.8,0.1-1.2c0-0.5,0.1-1,0.1-1.5
		l0-0.3c-0.3,0-0.5-0.2-0.7-0.5l-3.8,0l0,0.1c-0.1,0.2-0.2,0.4-0.3,0.6c-0.3,0.4-0.7,0.6-1.1,0.6c-0.4,0-0.8-0.2-1.1-0.6
		c-0.3-0.4-0.5-1-0.5-1.6c0-0.7,0.2-1.2,0.5-1.7c0.6-0.7,1.6-0.7,2.1,0c0.2,0.2,0.3,0.5,0.4,0.7l3.8,0c0.1-0.3,0.4-0.5,0.8-0.5h0.2
		l0-0.2c0-0.3,0-0.5,0-0.7c-1.4-0.5-2.1-1.5-2.3-3c-0.1-1.4,0.7-2.7,2-3.3c0.2-0.1,0.5-0.2,0.7-0.2c0.1,0,0.2,0,0.3-0.1l0.1,0l0.7,0
		l0.1,0c0.9,0.1,1.8,0.6,2.3,1.4c0.5,0.8,0.7,1.7,0.5,2.7c-0.3,1.2-1,2-2.2,2.5c0,0.3,0,0.6,0,0.9l0.1,0c0.4,0,0.7,0.2,0.9,0.5
		l1.6,0c0.7,0,1.5,0,2.2,0c0-0.1,0-0.1,0.1-0.2c0.1-0.1,0.1-0.2,0.2-0.3c0.3-0.4,0.7-0.7,1.2-0.7c0.4,0,0.8,0.2,1.2,0.7
		c0.6,0.9,0.6,2.3-0.1,3.2c-0.6,0.7-1.6,0.8-2.1,0c-0.2-0.2-0.3-0.4-0.4-0.7l0-0.1l-1.1,0c-0.9,0-1.8,0-2.7,0
		c-0.1,0.3-0.3,0.4-0.6,0.5c0,0-0.1,0-0.1,0l0,0.1c0,0.2,0,0.3,0,0.5c0,0.2,0,0.5,0,0.7c0,0.2,0,0.5,0,0.7l0.1,0.9
		c0,0.6,0.1,1.3,0.1,1.9l0,0.6c0,0.5,0,1,0.1,1.4l0,0.4c0.1,1,0.1,2,0.2,3c0,0.3,0.1,0.7,0.3,1.1c0.1,0.3,0.3,0.4,0.6,0.4
		c0.6-0.1,1.1-0.2,1.5-0.5c1-0.7,1.9-1.4,2.6-2.2c0.1-0.2,0.3-0.4,0.4-0.6c0,0,0,0,0,0c0,0,0,0,0,0c-0.3,0-0.5,0-0.8,0c0,0,0,0,0,0
		c-0.1,0-0.2,0-0.3-0.1l-0.1-0.1c-0.3-0.2-0.5-0.4-0.8-0.6L428,148l0.3-0.2c1.7-0.9,3.4-1.8,5.1-2.7l0.3-0.2l0,1.1
		c0,0.1,0,0.1,0,0.2l0,0.4c0,0.5,0,1,0,1.5c0,1,0,1.9-0.1,2.9c0,0.2,0,0.3,0,0.5l0,0.8l-0.3-0.3c-0.5-0.4-0.8-0.9-1.1-1.4
		c-0.1-0.2-0.2-0.3-0.3-0.5v0c-0.2,0.2-0.3,0.4-0.5,0.7c-0.3,0.4-0.5,0.8-0.8,1.2c-0.3,0.4-0.6,0.9-0.8,1.3c-1.2,1.8-2.9,3-5.2,3.4
		c-0.2,0-0.5,0.1-0.7,0.1c-0.1,0-0.2,0-0.4,0.1l0,0l-1.2,0c-0.2,0-0.3,0-0.5-0.1c-2.7-0.5-4.6-1.7-6-3.7l-0.3-0.4
		c-0.5-0.8-1.1-1.6-1.5-2.5c0,0.1-0.1,0.1-0.1,0.2c-0.3,0.5-0.6,1.1-1,1.5l-0.3,0.4l0-0.5c0-0.5-0.1-1-0.1-1.5l-0.1-1.1l-0.1-2.1
		c0-0.4,0-0.8-0.1-1.2l0-1L412.6,145.1z M352.3,158c0.3-1.2,0.7-2.3,1.4-3.4c1.7-2.7,4.5-5.3,7.2-7c5.5-3.4,12.6-4.3,17.2-4.7
		c0.4,0,3.1-0.1,3.1-0.1l0,0.6c0,0-0.6,0.1-1.5,0.2c-5.6,0.4-20.6,2.5-26.5,14.6c0,0-0.6,1.4-0.6,1.4l-0.5-0.2
		C352,159.5,352.1,158.9,352.3,158z"/>
	<path class="st0" d="M528.7,415.2c-8.4,0-15.2,8.5-15.2,18.9c0,10.4,6.8,18.9,15.2,18.9c8.4,0,15.2-8.5,15.2-18.9
		C543.9,423.7,537.1,415.2,528.7,415.2z M521.2,447.8c-3.4-3-5.6-8-5.6-13.7c0-5.6,2.2-10.6,5.6-13.7V447.8z M533.7,449.5
		c-1.5,0.8-3.2,1.3-5,1.3c-1.9,0-3.6-0.5-5.2-1.4v-30.6c1.6-0.9,3.4-1.4,5.2-1.4c1.8,0,3.5,0.5,5,1.3V449.5z M535.9,448v-27.7
		c3.5,3,5.8,8.1,5.8,13.9C541.7,439.9,539.4,445,535.9,448z"/>
	<path class="st0" d="M300.5,425.3c0-5.1-4-9.2-9.1-9.6v-0.1h-12.6v2.2h2.1v32.9h-2.1v2.2H291v0c5.3-0.4,9.5-4.6,9.5-9.6
		c0-4.1-2.6-7.6-6.3-9C297.9,432.9,300.5,429.4,300.5,425.3z M289.6,450.7h-6.5v-32.9h6.5V450.7z M298.3,443.3
		c0,3.5-2.8,6.6-6.5,7.3V436C295.5,436.5,298.3,439.6,298.3,443.3z M291.8,432.6V418c3.7,0.5,6.5,3.6,6.5,7.3
		C298.3,429,295.5,432.1,291.8,432.6z"/>
	<path class="st0" d="M387.9,425.3c0-5.1-4-9.2-9.1-9.6v-0.1h-12.6v2.2h2.1v32.9h-2.1v2.2h12.2v0c5.3-0.4,9.5-4.6,9.5-9.6
		c0-4.1-2.6-7.6-6.3-9C385.2,432.9,387.9,429.4,387.9,425.3z M376.9,450.7h-6.5v-32.9h6.5V450.7z M385.6,443.3
		c0,3.5-2.8,6.6-6.5,7.3V436C382.8,436.5,385.6,439.6,385.6,443.3z M379.1,432.6V418c3.7,0.5,6.5,3.6,6.5,7.3
		C385.6,429,382.8,432.1,379.1,432.6z"/>
	<path class="st0" d="M323.8,417.9h1.5v-2.2H312v2.2h1.7l-4.9,32.9H307v2.2h13.1v-2.2h-1.4l1.3-9.1h4.5l1.2,9.1h-1.1v2.2h4.8v-2.2
		h-1.4L323.8,417.9z M316.5,450.7H311l4.9-32.9h5.4L316.5,450.7z M320.4,439.4l2.1-14.1l1.8,14.1H320.4z"/>
	<path class="st0" d="M351.3,441.5c4.3-0.7,7.5-6.1,7.5-12.9c0-6.9-3.9-12.7-8.5-13v0h-13.1v2.2h2.1v32.9h-2.1v2.2H351v-2.2h-0.7
		v-6.8l4.9,6.8h-0.5v2.2h4.8v-2.2H358L351.3,441.5z M348,450.7h-6.6v-32.9h6.6V450.7z M350.3,417.9c3.4,0.3,6.3,5.2,6.3,10.7
		c0,5.8-2.9,10.8-6.3,10.8V417.9z"/>
	<path class="st0" d="M440,441.5c4.3-0.7,7.5-6.1,7.5-12.9c0-6.9-3.9-12.7-8.5-13v0h-13.1v2.2h2.1v32.9h-2.1v2.2h13.8v-2.2H439v-6.8
		l4.9,6.8h-0.5v2.2h4.8v-2.2h-1.5L440,441.5z M436.8,450.7h-6.6v-32.9h6.6V450.7z M439,417.9c3.4,0.3,6.3,5.2,6.3,10.7
		c0,5.8-2.9,10.8-6.3,10.8V417.9z"/>
	<path class="st0" d="M501.8,417.9h1.1v16.7h-6.2v-16.7h1.2v-2.2h-13.8v2.2h1.5v32.9h-1.5v2.2H498v-2.2h-1.2v-13.9h6.2v13.9h-1.1
		v2.2h4.8v-2.2h-1.4v-32.9h1.4v-2.2h-4.8V417.9z M494.5,450.7h-6.6v-32.9h6.6V450.7z"/>
	<path class="st0" d="M562.5,415.7H550v2.2h1.5v32.9H550v2.2h14.2v-2.2h-1.5v-9.1c4.7-0.2,8.7-6,8.7-13
		C571.4,421.6,567.3,415.7,562.5,415.7z M560.3,450.8h-6.6v-32.9h6.6V450.8z M562.7,439.4v-21.5c3.5,0.2,6.5,5.1,6.5,10.7
		C569.1,434.3,566.1,439.2,562.7,439.4z"/>
	<path class="st0" d="M416.3,415.6H395v2.2h2.1v32.9H395v2.2h21.3v-1.1h0v-3.2h-2.2v2.1h-5.7v-14.9h5.7v1.9h2.2v-6.1h-2.2v1.9h-5.7
		v-15.8h5.7v1.1h2.2v-3.1h0V415.6z M406.2,450.7h-6.8v-32.9h6.8V450.7z"/>
	<path class="st0" d="M465.7,414.4c-4,0-7.7,1.9-9.5,4.9c-1.2,2-2.1,5.3,0.4,10.1l1-0.5l-1,0.5l12.6,22.4c-1,0.3-2.2,0.5-3.3,0.5
		c-3.7,0-6.9-2.5-7.9-6.1h1.2V444h-4.8v2.2h1.4c1.1,4.8,5.3,8.3,10.2,8.3c4,0,7.8-1.9,9.6-4.9c1.2-1.9,2.1-5.2-0.2-9.9l-1,0.5l1-0.5
		l-12.6-22.6c1-0.3,2-0.5,3.1-0.5c3.7,0,6.9,2.5,7.9,6.1h-1.2v2.2h4.8v-2.2h-1.4C474.8,417.9,470.6,414.4,465.7,414.4z M473.2,440.8
		c1.5,3,1.6,5.6,0.3,7.7c-0.6,0.9-1.4,1.7-2.4,2.3l-12.6-22.5c-1.6-3-1.7-5.7-0.4-7.9c0.6-0.9,1.4-1.7,2.4-2.4L473.2,440.8z"/>
	<path class="st0" d="M594.5,432c-1.9,0-3.4,1.5-3.4,3.4c0,1.9,1.5,3.4,3.4,3.4c1.9,0,3.4-1.5,3.4-3.4
		C597.9,433.5,596.4,432,594.5,432z"/>
	<path class="st0" d="M251.5,432c-1.9,0-3.4,1.5-3.4,3.4c0,1.9,1.5,3.4,3.4,3.4c1.9,0,3.4-1.5,3.4-3.4
		C254.9,433.5,253.3,432,251.5,432z"/>
</g>
</svg>
