<?xml version="1.0" encoding="utf-8"?>
<!-- Generator: Adobe Illustrator 19.0.0, SVG Export Plug-In . SVG Version: 6.00 Build 0)  -->
<svg version="1.1" id="Слой_1" xmlns="http://www.w3.org/2000/svg" xmlns:xlink="http://www.w3.org/1999/xlink" x="0px" y="0px"
	 viewBox="-8039 635.2 304 148.1" style="enable-background:new -8039 635.2 304 148.1;" xml:space="preserve">
<g id="Слой_2">
</g>
<path id="XMLID_1545_" d="M-7884.9,636.3c0.8,0.1,1.7,0.3,2.5,0.4c3.3,0.5,6.5,1.3,9.5,2.7c0.3,0.1,0.6,0.3,1,0.5
	c-0.1,0.5-0.4,0.6-0.8,0.6c-1.6,0-2.4,0.7-2.5,2.1c-0.1,1.4,0.6,2.5,2,2.8c0.9,0.2,1.8,0,2.7-0.4c1.3-0.6,2.6-1.2,3.9-1.9
	c0.8-0.4,1.5-0.5,2.3-0.3c2.4,0.5,4.8,1.2,6.9,2.6c1.8,1.2,3.1,2.8,3.6,5c0.1,0.7,0.2,1.4,0.2,2c0,2.3,0,4.5,0,6.8
	c0,0.6,0,1.3,0,2.1c-0.7-0.1-1.4-0.1-2.1-0.2c0-0.3-0.1-0.5-0.1-0.8c0-1.3-0.1-2.6-0.1-3.9c0-0.2,0-0.3,0-0.5c0-0.4-0.1-0.8-0.6-0.7
	c-0.4,0-0.5,0.4-0.5,0.7c0,1,0.1,2,0.1,2.9c0,0.7,0,1.3,0,2c-0.4,0-0.7,0-1,0c0-0.3-0.1-0.5-0.1-0.8c-0.1-1.9-0.1-3.7-0.2-5.6
	c0-0.2,0-0.3,0-0.5c0-0.3-0.1-0.6-0.5-0.6c-0.4,0-0.5,0.3-0.5,0.7c0,0.2,0,0.4,0,0.6c0,1.5,0.1,3,0.1,4.5c0,0.5,0,1,0,1.5
	c-0.4,0-0.7,0-1,0c0-0.3-0.1-0.5-0.1-0.8c-0.1-2.1-0.1-4.2-0.2-6.3c0-0.8-0.2-1.1-0.6-1c-0.6,0.1-0.5,0.6-0.5,1
	c0,1.8,0.1,3.6,0.1,5.4c0,0.5,0,1,0,1.6c-0.4,0-0.7,0-1.1-0.1c-0.1-1.8-0.1-3.5-0.2-5.2c0-0.9,0-1.8,0-2.8c0-0.2,0-0.5-0.1-0.7
	c-0.1-0.2-0.3-0.4-0.5-0.4c-0.2,0-0.4,0.2-0.4,0.4c-0.1,0.2,0,0.5,0,0.7c0.1,2.4,0.1,4.7,0.2,7.1c0,0.2,0,0.4,0,0.6
	c-0.4,0-0.7,0-1.1,0c0-0.3-0.1-0.6-0.1-0.9c-0.1-2.5-0.1-4.9-0.2-7.4c0-0.3,0-0.5-0.1-0.8c-0.1-0.2-0.3-0.4-0.5-0.4
	s-0.4,0.2-0.5,0.4s0,0.5,0,0.8c0.1,2.7,0.1,5.3,0.2,8.1c-0.3,0-0.6,0-1,0.1c0-0.3-0.1-0.6-0.1-0.9c-0.1-2.6-0.1-5.2-0.2-7.8
	c0-0.3,0-0.6-0.1-0.9c-0.1-0.2-0.3-0.3-0.5-0.3c-0.1,0-0.4,0.2-0.4,0.4c-0.1,0.3-0.1,0.6,0,1c0.1,2.6,0.1,5.2,0.2,7.8
	c0,0.2,0,0.4-0.1,0.6c-0.3,0-0.6,0-1,0c0-0.3-0.1-0.5-0.1-0.8c-0.1-2.6-0.1-5.2-0.2-7.9c0-0.3,0-0.6-0.1-0.9
	c-0.1-0.2-0.3-0.4-0.6-0.4c-0.1,0-0.4,0.3-0.4,0.4c-0.1,0.3,0,0.7,0,1.1c0.1,2.5,0.1,4.9,0.2,7.4c0,0.3,0,0.6,0,0.9
	c-0.3,0-0.6,0-1,0c0-1.1-0.1-2.1-0.1-3.1c0-1.8-0.1-3.7-0.1-5.5c0-0.3,0-0.6-0.1-0.9c-0.1-0.2-0.3-0.4-0.5-0.4
	c-0.1,0-0.4,0.3-0.4,0.4c-0.1,0.3,0,0.7,0,1.1c0.1,2.4,0.1,4.8,0.2,7.3c0,0.4,0,0.7,0,1.1c-0.4,0-0.6,0-1,0c0-0.2-0.1-0.3-0.1-0.5
	c-0.1-2.5-0.1-5-0.2-7.5c0-0.5,0-0.9-0.1-1.4c0-0.3-0.2-0.5-0.5-0.5c-0.2,0.1-0.4,0.3-0.5,0.5c-0.1,0.5,0,1,0,1.5
	c0.1,2.3,0.1,4.5,0.2,6.8c0,0.3,0,0.6,0,0.9c-0.4,0-0.7,0-0.9,0c0-0.1-0.1-0.2-0.1-0.3c0-0.8-0.1-1.6-0.1-2.4c0-1.6-0.1-3.1-0.1-4.7
	c0-0.4,0-0.9,0-1.3c0-0.4-0.1-0.8-0.6-0.7c-0.5,0-0.5,0.4-0.5,0.8c0.1,2.4,0.1,4.8,0.2,7.3c0,0.4,0,0.8,0,1.2c-0.4,0-0.6,0-0.9,0
	c0-0.1-0.1-0.2-0.1-0.2c-0.1-1.3-0.1-2.6-0.1-3.8c0-1.3-0.1-2.6-0.1-3.8c0-0.2,0-0.5-0.1-0.7s-0.3-0.4-0.4-0.3
	c-0.2,0-0.4,0.2-0.5,0.4s-0.1,0.5-0.1,0.8c0.1,2.2,0.1,4.5,0.2,6.7c0,0.4,0,0.7,0,1.1c-0.4,0-0.7,0-1.1,0c0-0.4-0.1-0.8-0.1-1.2
	c0-1.9-0.1-3.9-0.1-5.8c0-0.3,0-0.7-0.1-1c-0.1-0.2-0.3-0.4-0.5-0.4c-0.2,0-0.4,0.2-0.5,0.4c-0.1,0.2,0,0.5,0,0.8c0.1,2,0.1,4,0.2,6
	c0,0.3,0,0.7,0,1.1c-0.4,0-0.7,0-1.1,0c0-0.4-0.1-0.8-0.1-1.1c0-1.7-0.1-3.5-0.1-5.2c0-0.8-0.2-1.1-0.6-1c-0.6,0.1-0.5,0.6-0.5,1
	c0,1.7,0.1,3.5,0.1,5.2c0,0.3,0,0.6,0,1.1c-0.4,0-0.7,0-1.1,0.1c0-0.3-0.1-0.6-0.1-0.8c-0.1-1.5-0.1-3.1-0.1-4.6
	c0-0.2,0-0.4-0.1-0.6c-0.1-0.2-0.3-0.3-0.5-0.3c-0.1,0-0.3,0.2-0.4,0.3c-0.1,0.2,0,0.5,0,0.7c0,1.4,0,2.8,0.1,4.2c0,0.3,0,0.6,0,1
	c-0.4,0-0.7,0-1.2,0c0-0.4,0-0.7,0-1.1c0-1.3,0-2.6,0-3.8c0-0.3-0.1-0.7-0.5-0.7c-0.4,0-0.5,0.3-0.5,0.7c0,1.2,0,2.4,0,3.5
	c0,0.4,0,0.8,0,1.4c-0.4,0-0.7,0-1.1,0.1c0-0.4-0.1-0.6-0.1-0.9c0-1.4,0-2.9,0-4.3c0-0.2,0-0.5,0-0.7c0-0.3-0.2-0.6-0.6-0.5
	c-0.2,0-0.4,0.3-0.4,0.5c-0.1,0.6,0,1.1,0,1.7c0,1.4-0.1,2.7-0.1,4.2c-0.4,0-0.7,0-1.2,0.1c0-0.4-0.1-0.6-0.1-0.9
	c0-1.8,0-3.5,0.1-5.3c0-0.3,0.1-0.5,0-0.8c-0.1-0.2-0.3-0.3-0.5-0.5c-0.2,0.2-0.4,0.3-0.5,0.5c-0.1,0.2,0,0.5,0,0.8c0,2,0,4.1,0,6.2
	c-0.4,0-0.8,0-1.2,0.1c0-0.4,0-0.7,0-1.1c0-2.1,0.1-4.2,0.1-6.3c0-0.8-0.1-1.1-0.5-1.1c-0.6,0.1-0.5,0.6-0.5,1c0,2.1,0,4.1-0.1,6.2
	c0,0.4,0,0.7,0,1.2c-0.4,0-0.7,0-1.1,0.1c0-0.4,0-0.7,0-1.1c0-2.3,0-4.6,0.1-6.9c0-0.2,0-0.5,0-0.7c-0.1-0.2-0.2-0.4-0.4-0.4
	c-0.2,0-0.5,0.2-0.5,0.3c-0.1,0.3-0.1,0.6-0.1,0.9c0,2.2,0,4.5-0.1,6.7c0,0.4,0,0.7,0,1.1c-0.4,0-0.7,0-1.1,0c0-0.3,0-0.6,0-0.9
	c0-2.4,0.1-4.9,0.1-7.3c0-0.3,0-0.5,0-0.8c0-0.2-0.3-0.4-0.4-0.4c-0.2,0-0.5,0.2-0.5,0.3c-0.1,0.3-0.1,0.6-0.1,0.9
	c0,2.4,0,4.7-0.1,7.1c0,0.4,0,0.7,0,1.1c-0.4,0-0.7,0-1.1,0c0-0.4,0-0.7,0-1c0-2.5,0-5,0.1-7.6c0-0.2,0-0.5,0-0.7
	c-0.1-0.2-0.3-0.5-0.4-0.4c-0.2,0-0.5,0.2-0.5,0.4c-0.1,0.2,0,0.5,0,0.8c0,2.5,0,4.9-0.1,7.4c0,0.4,0,0.7,0,1.2
	c-0.4,0.1-0.7,0.1-1.1,0.2c0-0.4,0-0.8,0-1.1c0-2.6,0-5.1,0.1-7.7c0-0.3,0-0.5,0-0.8c-0.1-0.2-0.3-0.5-0.4-0.4
	c-0.2,0.1-0.4,0.2-0.5,0.4s-0.1,0.5-0.1,0.8c0,2.5-0.1,5-0.1,7.5c0,0.4,0,0.8-0.1,1.3c-0.3,0-0.7,0-1.1,0.1c0-0.4,0-0.8,0-1.1
	c0-2.5,0-5,0.1-7.6c0-0.3,0-0.5,0-0.8c0-0.2-0.2-0.4-0.4-0.4c-0.2,0-0.5,0.1-0.5,0.3c-0.1,0.3-0.1,0.6-0.1,0.9c0,2.5-0.1,5-0.1,7.6
	c0,0.4,0,0.7-0.1,1.1c-0.3,0.1-0.6,0.1-1,0.2c0-0.4,0-0.8,0-1.1c0-2.5,0-4.9,0.1-7.4c0-0.3,0.1-0.5,0-0.8c-0.1-0.2-0.3-0.3-0.5-0.5
	c-0.2,0.2-0.4,0.3-0.5,0.5c-0.1,0.2,0,0.5,0,0.8c0,2.5-0.1,5-0.1,7.5c0,0.3,0,0.6,0,1c-0.3,0-0.6,0.1-1.1,0.1c0-0.4,0-0.8,0-1.1
	c0-2.4,0-4.7,0.1-7.1c0-0.4,0.2-0.9-0.5-1c-0.4-0.1-0.6,0.3-0.6,1c0,2.4-0.1,4.8-0.1,7.2c0,0.4,0,0.7-0.1,1.1c-0.4,0-0.6,0-1,0
	c0-0.3-0.1-0.6-0.1-0.9c0-2.2,0-4.5,0.1-6.7c0-0.3,0-0.5,0-0.8c-0.1-0.2-0.3-0.4-0.5-0.4c-0.2,0-0.4,0.2-0.5,0.4
	c-0.1,0.2,0,0.5-0.1,0.8c0,2.3-0.1,4.7-0.1,7c0,0.2,0,0.4,0,0.7c-0.3,0.1-0.6,0.1-1.1,0.2c0-0.5,0-0.8,0-1.2c0-1.9,0-3.8,0.1-5.7
	c0-0.4,0.2-1-0.5-1.1c-0.4-0.1-0.5,0.3-0.5,1.1c0,2-0.1,4.1-0.1,6.1c0,0.3,0,0.5,0,0.8c-0.3,0-0.6,0.1-1.1,0.1c0-0.4,0-0.7,0-1
	c0-1.7,0-3.5,0.1-5.2c0-0.4,0.1-1-0.5-1s-0.5,0.6-0.5,1c0,1.8-0.1,3.5-0.1,5.3c0,0.3,0,0.6,0,1c-0.4,0-0.7,0.1-1.1,0.1
	c0-0.3-0.1-0.6-0.1-0.8c0-1.1,0-2.3,0.1-3.4c0-0.2,0-0.5,0-0.7c0-0.4-0.1-0.7-0.5-0.7c-0.4,0-0.5,0.4-0.5,0.7c0,0.6,0,1.1,0,1.7
	c0,1.1,0,2.2,0,3.4c-0.8,0.1-1.5,0.2-2.2,0.3c0-0.3-0.1-0.4-0.1-0.6c0-2.1,0-4.3,0-6.4c0-1.1,0-2.3,0.2-3.4c0.3-2.3,1.6-4,3.5-5.4
	c1.9-1.3,4-2,6.1-2.5c1.2-0.3,2.4-0.4,3.7-0.6c0.4-0.1,0.7-0.1,0.9-0.4c1-1.3,2.4-2.2,3.9-2.9c2.7-1.3,5.5-2,8.5-2.4
	c0.9-0.1,1.7-0.3,2.6-0.4C-7889,636.3-7886.9,636.3-7884.9,636.3z M-7890.9,647.6c0.3,0.5,0.6,0.9,0.9,1.3c1.5,2.1,4.8,2.2,6.2-0.2
	c0.2-0.4,0.5-0.8,0.9-1.4c0.2,0.4,0.3,0.7,0.4,0.9c0.1-0.1,0.2-0.1,0.3-0.2c0.1-0.9,0.1-1.9,0.1-3c-0.9,0.5-1.6,0.9-2.4,1.3
	c0.4,0.3,0.6,0.4,0.9,0.7c-0.7,0.6-1.2,1.4-2.2,1.3c-0.1-0.2-0.1-0.3-0.1-0.5c-0.1-1.4-0.2-2.9-0.3-4.3c0-0.4,0.2-0.6,0.6-0.6
	c0.6,0,1.2-0.2,1.7,0.4c0.3,0.3,0.8,0.1,0.9-0.3c0.1-0.3,0.1-0.7,0-1c-0.1-0.4-0.6-0.6-0.9-0.3c-0.6,0.6-1.2,0.3-1.8,0.3
	c-0.2,0-0.4-0.2-0.7-0.4c0.3-0.3,0.5-0.4,0.7-0.6c0.6-0.6,0.5-1.5-0.1-2.1c-0.6-0.5-1.5-0.5-2,0c-0.6,0.6-0.6,1.5,0,2.1
	c0.2,0.2,0.4,0.3,0.6,0.5c-0.6,0.6-1.6,0.7-2.3,0.2c-0.6-0.4-1-0.2-1.1,0.4c0,0.2,0,0.5,0,0.7c0.2,0.5,0.6,0.7,1,0.3
	c0.5-0.5,1.1-0.3,1.7-0.3c0.4,0,0.6,0.2,0.6,0.6c-0.1,1.4-0.1,2.7-0.2,4.1c0,0.2-0.2,0.5-0.2,0.7c-0.9-0.1-1.4-0.7-2-1.3
	c0.2-0.2,0.5-0.4,0.8-0.7c-0.8-0.4-1.6-0.8-2.5-1.3c0.1,1.1,0.1,2,0.2,3.1C-7891.3,648-7891.1,647.8-7890.9,647.6z M-7918.6,651.5
	c0.1-0.1,0.1-0.1,0.2-0.2c1-2.2,2.6-3.7,4.7-4.8c1.9-1,3.9-1.6,6.1-1.8c0.5-0.1,1.1-0.1,1.6-0.2c0-0.1,0-0.1,0-0.2
	c-2.8,0-5.4,0.4-8,1.6c-1.6,0.7-2.8,1.9-3.8,3.3C-7918.3,649.8-7918.6,650.6-7918.6,651.5z M-7856,650.1c-1.1-3.1-4.9-5.3-7.4-5.1
	C-7860.2,645.9-7857.9,647.7-7856,650.1z"/>
<path id="XMLID_1544_" d="M-8036.9,721.1c0.2-1.2,0.4-2.4,0.6-3.7c0.7-5.4,2.4-10.4,5.5-14.9c1-1.4,2.1-2.8,3.3-4
	c4.3-4.4,9.5-5.8,15.5-4.2c0.9,0.2,1.8,0.5,2.6,0.8c0.6,0.2,1.3,0.4,1.9,0.5c1.8,0.4,3.4,0.2,4.9-1c0.3-0.2,0.6-0.5,0.9,0
	c0,0-5.9,15.2-5.9,15.3c-0.5-0.2-0.4-0.6-0.5-1c-0.3-1.8-0.7-3.5-1.4-5.2c-0.6-1.6-1.5-3-2.7-4.2c-2.5-2.5-6.3-2.9-9.3-1.1
	c-1.1,0.7-2.1,1.6-2.9,2.7c-1.7,2.3-2.7,4.9-3.4,7.7c-0.7,3.1-1.1,6.2-1.2,9.3c-0.1,3-0.1,6,0,8.9c0.1,3.8,0.7,7.6,2.1,11.2
	c0.5,1.1,1,2.3,1.7,3.3c3,4.9,8.7,5.9,13.3,2.5c1.3-1,2.4-2.3,3.2-3.7c1.3-2.3,2.1-4.7,2.5-7.3c0.2-1.1,0.3-2.2,0.4-3.3
	c0-0.4,0.1-0.7,0.2-1c0.2-0.6,0.6-0.9,1.1-0.8c0.5,0,0.8,0.4,0.9,0.9s0.2,1,0.2,1.6c-0.1,4.1-0.9,7.9-2.8,11.5
	c-2.3,4.4-6,6.7-10.7,7.6c-2,0.4-4,0.4-6.1,0.1c-3.2-0.5-5.8-2.1-7.9-4.6c-2.6-2.9-4.1-6.4-4.9-10.2c-0.4-1.8-0.6-3.7-0.9-5.5
	c-0.1-0.6-0.2-1.2-0.4-1.8C-8036.9,725.3-8036.9,723.2-8036.9,721.1z"/>
<path id="XMLID_1530_" d="M-7982.2,714.7c4.1,0.2,8.1-0.1,12.1-1.1c0-0.4,0-0.7,0-1c0-5.6,0-11.1,0-16.7c0-0.7-0.2-1.2-0.7-1.7
	c-0.9-0.9-1.8-1.8-2.7-2.7c-0.2-0.2-0.4-0.4-0.7-0.8c5.2-0.6,10.2-1,15.5-1.5c-0.3,0.4-0.5,0.7-0.7,0.9c-1.1,1.4-2.2,2.8-3.3,4.1
	c-0.4,0.5-0.6,1-0.6,1.7c0,6.4,0,12.9,0,19.3c0,7,0,14,0,20.9c0,0.9,0.2,1.5,0.9,2.1c0.9,0.8,1.7,1.7,2.6,2.5
	c0.1,0.1,0.3,0.3,0.5,0.6c-5.1,0.5-10.1,1-15.3,1.5c0.3-0.4,0.5-0.7,0.7-0.9c1.1-1.3,2.2-2.6,3.4-3.8c0.3-0.3,0.4-0.7,0.4-1.1
	c0-5.3,0-10.6,0-15.8c0-0.2,0-0.4-0.1-0.7c-3.9,1.5-7.9,1.6-12,1.5c0,0.4-0.1,0.8-0.1,1.1c0,5.1,0,10.2,0,15.3
	c0,0.6,0.2,1.1,0.5,1.5c1.4,1.8,2.9,3.7,4.3,5.5c0.2,0.3,0.4,0.6,0.7,1c-1,0.1-1.8,0.2-2.7,0.3c-4.5,0.5-9,1-13.6,1.5
	c-0.7,0.1-1.5,0.2-1.8-0.9c2.6-0.4,5.3-0.6,7.9-1c2.7-0.3,5.3-0.6,8.1-0.9c-0.2-0.3-0.3-0.5-0.4-0.7c-1.2-1.5-2.4-2.9-3.6-4.3
	c-0.3-0.4-0.5-0.8-0.5-1.3c0-5.7,0-11.5,0-17.2c0-0.3,0-0.5,0.1-0.9c0.4,0,0.7-0.1,1.1-0.1c1.8,0,3.5,0,5.3-0.1
	c1.9-0.1,3.8-0.4,5.5-1.2c1.1-0.5,1.1-0.5,0.9-1.9c-4.8,1.2-9.6,1.6-14.6,1.4c0,0.4-0.1,0.6-0.1,0.9c0,6.2,0,12.5,0,18.7
	c0,0.5,0.1,0.9,0.5,1.2c1,0.9,2,1.8,3,2.7c0.2,0.2,0.5,0.3,0.7,0.5c0,0.1-0.1,0.2-0.1,0.3c-5,0.6-10,1.1-15.2,1.7
	c0.3-0.4,0.5-0.7,0.7-0.9c1.1-1.3,2.2-2.6,3.3-3.9c0.3-0.3,0.4-0.7,0.4-1.2c0-5.5,0-11,0-16.5c0-0.2,0-0.4-0.1-0.6
	c-1.2,0.1-2.2,0.6-3.1,1.4c-0.4,0.4-0.8,0.9-1.1,1.4c-0.3,0.4-0.5,0.3-0.9-0.1c1.2-2,2.8-3.3,5.1-3.9c0-0.4,0-0.8,0-1.3
	c-1.8-0.3-3.5,0.9-5.9,3.8c-0.4-0.1-0.5-0.3-0.4-0.7c1.1-3.1,2.7-5.8,5.9-7.1c0.1,0,0.2-0.1,0.3-0.1c0,0,0,0,0.2-0.2
	c0-0.2,0-0.5,0-0.9c0-5.5,0-11,0-16.5c0-0.6-0.2-1.1-0.6-1.6c-1-1-2-2-3-3.1c-0.2-0.2-0.4-0.5-0.8-0.9c5.3-0.6,10.4-1.1,15.7-1.6
	c-0.2,0.3-0.3,0.5-0.4,0.7c-1.2,1.6-2.4,3.1-3.6,4.7c-0.2,0.8-0.4,1.2-0.4,1.6c0,5.5,0,11,0,16.5c0,0.1,0,0.3,0.1,0.5
	c0.5,0,1,0.1,1.7,0.1c0-0.5,0-0.8,0-1.2c0-5.1,0-10.3,0-15.4c0-0.6,0.2-1.1,0.6-1.6c1-1.3,2-2.6,3.1-4c0.2,0.2,0.5,0.4,0.7,0.6
	c-0.6,0.7-1.1,1.4-1.6,2.1c-0.6,0.8-1.4,1.6-1.7,2.5c-0.3,0.9-0.1,1.9-0.1,2.9c0,4.3,0,8.5,0,12.8
	C-7982.2,713.8-7982.2,714.2-7982.2,714.7z"/>
<path id="XMLID_1526_" d="M-7768.9,749.6c-1.4-0.2-2.6-0.3-3.8-0.5c-4.1-0.5-8.3-1-12.4-1.5c-0.4,0-0.8-0.2-1.2-0.1
	c-0.8,0-1.2-0.4-1.4-1.3c5.6,0.7,11.2,1.4,16.9,2.1c-0.3-0.4-0.4-0.7-0.6-1.1c-0.7-1.2-1.4-2.4-2.1-3.7c-1.4-2.6-1.6-5.4-1.3-8.2
	c0.4-3.1,1.3-6.1,2.4-9.1c0.2-0.6,0.2-1-0.2-1.4c-0.3-0.4-0.6-0.8-0.9-1.3c-0.1,0.3-0.2,0.4-0.3,0.6c-0.9,3.1-1.8,6.2-2.5,9.4
	c-0.4,1.8-0.5,3.6-0.2,5.4c0.2,1.2,0.7,2.3,1.3,3.4c0.7,1.1,1.5,2.2,2.2,3.4c-0.7,0.1-15.5-1.6-16.4-1.9c0.2-0.2,0.4-0.3,0.7-0.4
	c2.9-1.7,5.1-4,6.8-6.9c1.5-2.7,2.6-5.5,3.5-8.4c0.6-2.1,1.2-4.1,1.9-6.2c0.2-0.7,0.1-1.2-0.5-1.6c-1-0.8-2.1-1.4-3.4-1.8
	c-0.3-0.1-0.6-0.2-0.9-0.3c0.9-2.2,1.9-4.3,2.8-6.5c1.2,1.4,2.4,2.9,3.8,4.5c0.3-0.7,0.4-1.2,0.7-1.7c-1.2-1.3-2.3-2.6-3.5-4
	c0.1-0.3,0.3-0.5,0.5-0.8c1.3,1,2.3,2.3,3.5,3.5c0.1-0.3,0.2-0.6,0.3-0.9c1.3-4.3,2.6-8.6,4-13c0.2-0.6,0.1-1-0.2-1.5
	c-0.8-1.1-1.6-2.3-2.4-3.5c-0.2-0.2-0.3-0.5-0.6-0.9c5.2,0.5,10.2,1.1,15.4,1.7c-0.2,0.3-0.3,0.5-0.4,0.7c-0.8,1.1-1.7,2.2-2.6,3.2
	c-0.3,0.4-0.4,0.7-0.2,1.2c1.7,5.7,3.4,11.5,5.1,17.2c0.1,0.2,0.2,0.4,0.3,0.7c0.4-0.2,0.8-0.4,1.2-0.7c-0.1-0.4-0.2-0.7-0.3-1
	c-1.5-5-2.9-10-4.4-15c-0.2-0.6-0.2-1,0.3-1.5c1-1.3,2-2.6,3.1-3.9c0.3,0.2,0.6,0.3,0.9,0.5c-0.2,0.3-0.4,0.6-0.6,0.9
	c-0.8,1-1.5,2-2.3,3c-0.3,0.4-0.4,0.7-0.2,1.2c1.5,4.9,2.9,9.7,4.3,14.6c0.1,0.2,0.1,0.4,0.3,0.7c0.9-0.8,1.8-1.6,2.8-2.5
	c0.4,1.5,0.7,2.9,1.1,4.3c0.4,1.4,1,2.8,1.5,4.2c-2-0.2-4-0.7-5.9,0.5c0.3,1.2,0.7,2.3,1,3.4c1.6,5.5,3.2,11.1,4.8,16.6
	c0.2,0.7,0.5,1.3,1,1.8c1.2,1.3,2.4,2.7,3.6,4c0.2,0.2,0.3,0.4,0.6,0.7c-5.7-0.8-11.2-1.6-16.8-2.4c0.2-0.3,0.4-0.5,0.6-0.6
	c1.1-1,2.3-2.1,3.5-3.1c0.4-0.3,0.5-0.6,0.3-1.1c-1.2-3.8-2.3-7.6-3.4-11.4c0-0.1-0.1-0.2-0.1-0.3c-1.1,0.7-2.2,2.2-5.7,7.6
	c-0.1,0-0.1,0.1-0.2,0c-0.2-0.1-0.4-0.2-0.6-0.3c0.1-0.3,0.2-0.5,0.3-0.7c1.4-2.5,3.1-4.7,4.9-6.9c1-1.2,1-1.3,0.1-2.8
	c-2.7,2.4-4.7,5.2-6.5,8.4c-1.7-3.4-3.4-6.7-5.3-9.9c-0.1,0.2-0.2,0.3-0.3,0.4c-1.2,3.1-2.2,6.3-2.4,9.7c-0.1,2.2,0.1,4.4,1.2,6.4
	c1,1.9,2.1,3.7,3.2,5.5C-7769.3,749-7769.1,749.2-7768.9,749.6z M-7765.1,707.7c-0.1,0-0.1,0-0.2,0c-0.1,0.3-0.2,0.6-0.3,0.9
	c-1,3.1-2,6.2-3,9.3c-0.2,0.7-0.1,1.2,0.3,1.8c1.5,2.2,2.9,4.4,4.1,6.8c0.1,0.1,0.2,0.2,0.2,0.3c1-1.1,1.9-2.2,2.8-3.2
	c0.4-0.4,0.5-0.8,0.3-1.4c-1.1-3.5-2.1-7.1-3.2-10.6C-7764.4,710.3-7764.8,709-7765.1,707.7z M-7764.7,727.6c-1.4-2.8-3-5.4-4.8-7.8
	c-0.5-0.6-0.5-1.2-0.3-1.9c1.3-3.8,2.5-7.6,3.7-11.4c0.1-0.3,0.3-0.7,0.2-1c-0.2-0.9-0.5-1.8-0.8-2.9c-0.1,0.3-0.2,0.5-0.3,0.6
	c-1.6,5-3.2,10.1-4.9,15.1c-0.2,0.5,0,0.8,0.2,1.2c2,2.8,3.7,5.7,5.3,8.7c0.1,0.3,0.3,0.5,0.5,0.9
	C-7765.4,728.6-7765.1,728.1-7764.7,727.6z"/>
<path id="XMLID_1525_" d="M-7917.3,686.9c-2.7,4-4.5,8.1-6,12.6c-0.2-0.6-0.4-1-0.5-1.3c-0.7-1.4-1.3-2.8-2.1-4.2
	c-1-1.7-2.5-2.6-4.4-2.7c-1.7-0.1-3.5-0.2-5.2-0.2c-1.6,0-3.2,0.3-4.8,0.4c-0.3,0-0.6,0.1-1,0.2c0,6.2,0,12.3,0,18.6
	c0.7,0,1.3-0.1,2-0.1c0-5.5,0-11,0-16.5c0.7-0.1,1.4-0.2,2-0.3c2.4-0.3,4.8-0.5,7.1-0.1c2.6,0.4,4.2,2,5.3,4.3
	c-0.2-0.1-0.3-0.2-0.5-0.3c-0.9-0.7-1.8-1.4-2.7-2.1c-0.7-0.6-1.6-0.8-2.5-0.8c-2.6-0.1-5.1,0.1-7.6,0.5c-0.1,0-0.1,0.1-0.2,0.1
	c0,5,0,10.1,0,15.3c0.3,0,0.5,0,0.8,0c1.5-0.1,2.9-0.2,4.4-0.3c0.7,0,1.1-0.2,1.4-0.8c1-1.8,2.1-3.6,3.2-5.4
	c0.2-0.3,0.3-0.6,0.5-0.8c0.1,0,0.1,0,0.1,0s0.1,0,0.1,0.1c0,5.4,0,10.8,0,16.2c0,0.1,0,0.2-0.1,0.5c-0.3-0.4-0.5-0.6-0.6-0.9
	c-1-1.5-2.1-3.1-3.1-4.7c-0.3-0.5-0.7-0.8-1.3-0.7c-2.4,0.2-4.9,0.3-7.4,0.5c-0.3,0-0.5,0.1-0.8,0.1c0,7.5,0,15,0,22.6
	c0.6,0,1.2-0.1,1.9-0.1c0-6.9,0-13.8,0-20.7c0.3-0.1,0.5-0.1,0.7-0.2c2-0.1,4.1-0.2,6.1-0.4c0.7-0.1,1,0.4,1.3,1
	c-2.5,0.2-4.8,0.3-7.2,0.5c0,6.6,0,13.1,0,19.7c0.7-0.1,1.4-0.1,2-0.2c1.9-0.3,3.9-0.6,5.8-1c2.9-0.6,4.8-2.4,6.1-5
	c0.7-1.4,1.4-2.8,2-4.3c0.1-0.2,0.2-0.4,0.5-0.8c0.6,2.5,1.1,4.8,2.2,6.9c1.1,2.1,2.6,4,4.2,5.9c-12.5,0.8-24.9,1.6-37.4,2.4
	c0.1-0.2,0.2-0.4,0.4-0.5c1.3-1.3,2.7-2.7,4-4c0.3-0.3,0.5-0.6,0.5-1.1c0-5.6,0-11.2,0-16.8c0-0.2,0-0.4-0.1-0.6
	c-1.9,0.4-3.5,1.2-4.9,2.3c-0.1,0-0.2,0-0.2-0.1c-0.1-0.2-0.2-0.4-0.3-0.6c1.5-1.5,3.4-2.2,5.5-2.7c0-0.6,0-1.2,0-1.7
	c-1.6-0.5-3.6,0.3-6.8,3c0-1.2,1-3.3,2.1-4.5c1.2-1.3,2.9-1.9,4.7-2.2c0-0.3,0-0.6,0-0.9c0-5.2,0-10.4,0-15.5c0-0.6-0.2-1-0.6-1.4
	c-1.2-1-2.4-2.1-3.6-3.2c-0.2-0.2-0.5-0.4-0.7-0.7C-7941.2,688-7929.4,687.4-7917.3,686.9z"/>
<path id="XMLID_1524_" d="M-7831,688.1c11.8,0.9,23.6,1.9,35.6,2.8c-0.7,1.1-1.3,1.9-1.8,2.8c-0.6,0.9-1.1,1.9-1.6,2.8
	c-0.5,1-0.9,2-1.3,3s-0.8,2-1.2,3.2c-0.2-0.4-0.3-0.6-0.4-0.8c-0.6-1.4-1.2-2.8-1.9-4.2c-1.1-2.4-3-3.8-5.7-4.3
	c-1.9-0.3-3.8-0.6-5.7-0.7c-1.4-0.1-2.9-0.1-4.3-0.2c-0.2,0.8-0.3,17.3-0.1,18.6c0.6,0.1,1.2,0.1,1.9,0.2c0-1.4,0-2.8,0-4.2
	c0-1.3,0-2.7,0-4c0-1.4,0-2.8,0-4.1s0-2.7,0-4c0.1-0.1,0.2-0.1,0.3-0.1c2.8-0.1,5.5,0,8.2,0.6c3,0.7,4.8,2.6,6,5.3
	c-0.2-0.2-0.4-0.4-0.6-0.5c-0.9-0.8-1.8-1.7-2.7-2.5c-0.5-0.4-1-0.7-1.6-0.9c-2.8-0.8-5.7-0.8-8.6-0.8c0,5.1,0,10.2,0,15.4
	c1.3,0.1,2.7,0.2,4,0.4c0.3,0,0.7,0,1,0.1c1,0.3,1.4-0.2,1.9-0.9c0.9-1.6,2-3.1,3-4.6c0.2-0.3,0.4-0.5,0.6-0.8
	c0.2,0.7,0.3,15.2,0.1,16.9c-0.2-0.2-0.3-0.4-0.4-0.5c-1.2-1.9-2.3-3.8-3.5-5.7c-0.2-0.4-0.5-0.6-1-0.7c-2.7-0.2-5.4-0.4-8-0.6
	c-0.1,0-0.2,0-0.3,0c-0.2,0.7-0.2,21.4,0,22.5c0.6,0.1,1.2,0.1,1.9,0.2c0-6.9,0-13.8,0-20.7c0.6,0.1,1,0.1,1.5,0.1
	c1.7,0.1,3.3,0.3,5,0.4c0.8,0,1.3,0.4,1.6,1.2c-2.5-0.2-4.8-0.4-7.2-0.6c0,6.6,0,13.1,0,19.7c0.3,0,0.5,0.1,0.7,0.1
	c2.5,0.2,5,0.3,7.5,0c2.7-0.3,4.6-1.7,5.8-4c0.7-1.3,1.4-2.7,2.1-4.1c0.1-0.2,0.2-0.3,0.4-0.7c0.6,2.7,1.2,5.1,2.3,7.4
	c1.1,2.3,2.6,4.3,4.1,6.5c-12.5-1.1-24.9-2.3-37.4-3.4c0.2-0.2,0.3-0.4,0.5-0.6c1.3-1.1,2.6-2.2,3.8-3.2c0.4-0.3,0.5-0.6,0.5-1.1
	c0-5.6,0-11.2,0-16.8c0-0.2,0-0.3,0-0.5c-1.8,0-3.4,0.7-5,1.7c-0.2-0.3-0.3-0.6-0.5-0.8c1.6-1.3,3.5-1.7,5.5-1.9c0-0.6,0-1.2,0-1.8
	c-2.6-0.6-4.8,0.5-6.7,2.2c-0.1-1.2,0.9-3.2,2.1-4.2c1.3-1.2,2.9-1.5,4.6-1.5c0-0.3,0.1-0.5,0.1-0.8c0-5.2,0-10.4,0-15.6
	c0-0.6-0.2-1-0.6-1.4c-1.2-1.2-2.4-2.5-3.7-3.7c-0.2-0.2-0.4-0.5-0.6-0.7C-7831.1,688.2-7831,688.1-7831,688.1z"/>
<path id="XMLID_1522_" d="M-7844.2,701.4c-0.2-0.7-0.4-1.3-0.5-1.8c-0.3-1.1-0.6-2.3-1-3.4c-1.4-3.4-3.8-5.7-7.3-6.6
	c-4.3-1.1-8.5,1.2-9.7,5.3c-1,3.6-0.2,6.7,2.7,9.2c1.5,1.3,3.2,2.1,5.1,2.7c2,0.7,4,1.3,6,2c2.4,0.8,4.7,1.9,6.7,3.6
	c3.1,2.6,4.8,6,5.3,10c0.3,2.8,0.2,5.5-0.8,8.1c-1.8,4.7-5,7.8-10,8.8c-2.4,0.5-4.8,0.2-7.1-0.2c-2.8-0.5-5.5-1.5-8.2-2.4
	c-0.9-0.3-1.9-0.6-2.8-0.8c-1.9-0.5-3.6-0.2-5.3,0.8c-0.2,0.1-0.3,0.2-0.5,0.3h-0.1c-0.3-0.2-0.4-0.4-0.2-0.7
	c0.1-0.2,0.2-0.3,0.3-0.5c2.2-4.1,4.1-8.3,5.3-12.8c0-0.2,0.1-0.4,0.2-0.5c0.5-0.1,0.6,0.2,0.7,0.5c0.2,1,0.3,1.9,0.6,2.9
	c0.5,2,1.4,3.8,2.6,5.5c2.2,2.8,5.1,4.4,8.7,4.9c1.6,0.2,3.1,0.2,4.7-0.1c4-0.8,6.5-3.8,6.6-7.9c0.1-4.5-1.8-7.9-5.7-10.1
	c-2.6-1.4-5.4-2.3-8.1-3.1c-1.5-0.5-3.1-1-4.5-1.6c-0.9-0.4-1.8-0.9-2.6-1.4c-2.4-1.5-4-3.7-4.8-6.4c-1.1-3.7-1.2-7.5,0.1-11.2
	c1.6-4.9,6-8.1,11.1-8.4c3.3-0.2,6.4,0.5,9.4,1.5c1.2,0.4,2.4,0.8,3.5,1.2c1.6,0.5,3,0.3,4.4-0.5c0.3-0.2,0.6-0.3,0.9-0.5
	c0,0.3,0.1,0.4,0,0.5c-2,3.1-3,6.6-4.2,10c-0.3,0.8-0.6,1.5-0.9,2.3C-7843.9,700.8-7844,701-7844.2,701.4z"/>
<path id="XMLID_1517_" d="M-7910.9,738.1c1.3-1.3,2.6-2.5,3.9-3.8c0.5-0.4,0.7-0.9,0.7-1.5c0-13.4,0-26.8,0-40.2
	c0-0.7-0.2-1.2-0.7-1.6c-1.1-1.1-2.1-2.2-3.2-3.4c-0.2-0.2-0.4-0.5-0.6-0.7c0.9-0.3,13.9-0.6,15.7-0.4c-0.2,0.3-0.3,0.5-0.5,0.7
	c-1.2,1.4-2.3,2.8-3.5,4.1c-0.4,0.4-0.6,0.9-0.6,1.5c0,13.8,0,27.5,0,41.3c0,0.3,0,0.5,0,0.9c0.5,0.1,1,0.1,1.6,0.2
	c0-0.5,0.1-0.9,0.1-1.3c0-13.4,0-26.8,0-40.2c0-0.9,0.2-1.6,0.8-2.2c1-1.1,1.8-2.2,2.8-3.4c0.2,0.3,0.4,0.6,0.5,0.9
	c-1,1.2-1.9,2.4-2.8,3.5c-0.3,0.4-0.4,0.8-0.4,1.3c0,13.6,0,27.1,0,40.7c0,0.3,0,0.5,0.1,0.9c1.6,0.1,3.2,0.1,4.8,0
	c0.6-0.1,1.1-0.2,1.6-0.3c2.7-0.7,4.7-2.2,5.9-4.6c1-1.8,1.5-3.8,1.9-5.9c0.1-0.3,0.1-0.6,0.2-1c0.9,2.6,1.7,5.1,2.7,7.6
	c0.9,2.5,2.1,4.8,3.8,7.1c-11.7,0.1-23.2,0.3-34.8,0.4C-7910.8,738.3-7910.9,738.2-7910.9,738.1z"/>
<path id="XMLID_1373_" d="M-7849.5,661.6c0-1.9,0-3.7,0-5.6c0.2,0,0.3,0,0.4,0.1c4.1,1.8,8.4,2.9,12.8,3.9
	c5.3,1.2,10.6,2.1,15.9,2.9c2.2,0.3,4.4,0.4,6.6,0.7c3.6,0.4,7.2,0.7,10.8,1.1c3.7,0.4,7.4,0.8,11,1.3c3.9,0.5,7.7,0.9,11.6,1.5
	c4.1,0.5,8.1,1.1,12.2,1.7c4.2,0.6,8.4,1.3,12.6,1.9c0.4,0.1,0.7,0.2,0.5,0.8c-0.3,0-0.7,0-1-0.1c-7-1-14-2.1-21-3.1
	c-5.4-0.8-10.8-1.4-16.2-2.1c-5-0.6-10.1-1.1-15.1-1.7c-5.2-0.5-10.4-1-15.7-1.5c-4-0.3-8-0.6-12-0.9c-3.9-0.3-7.7-0.5-11.6-0.8
	C-7848.1,661.7-7848.8,661.7-7849.5,661.6z"/>
<path id="XMLID_1372_" d="M-7924.4,656c0,1.9,0,3.7,0,5.7c-31.7,1.7-63.1,5.2-94.4,10.2c-0.2-0.6,0-0.8,0.5-0.9
	c1.6-0.2,3.2-0.5,4.8-0.8c4.8-0.7,9.5-1.4,14.3-2.1c4.2-0.6,8.4-1.1,12.7-1.7c4.2-0.5,8.3-1,12.5-1.5c3.3-0.4,6.6-0.8,9.9-1
	c10.3-0.8,20.6-2.3,30.6-4.9c3-0.8,5.9-1.6,8.8-2.9C-7924.8,656-7924.7,656-7924.4,656z"/>
<path id="XMLID_1366_" d="M-7955.2,744.5c-2.3,0.2-4.5,0.4-6.6,0.6c-3.3,0.3-6.5,0.6-9.8,1c-0.8,0.1-1.4,0-1.7-1
	c5.3-0.5,10.6-1,16-1.5c-0.2-0.3-0.3-0.5-0.4-0.7c-1.1-1.5-2.3-3-3.4-4.4c-0.3-0.4-0.5-0.8-0.5-1.3c0-13.6,0-27.3,0-40.9
	c0-0.5,0.1-0.9,0.4-1.3c1.1-1.4,2.1-2.7,3.3-4.2c0.2,0.3,0.4,0.5,0.6,0.7c-0.1,0.1-0.1,0.2-0.1,0.3c-0.9,1.1-1.8,2.3-2.7,3.4
	c-0.4,0.5-0.6,0.9-0.6,1.5c0,13.3,0,26.6,0,39.9c0,0.6,0.2,1,0.5,1.4c1.5,1.9,2.9,3.7,4.3,5.6
	C-7955.7,743.8-7955.5,744.1-7955.2,744.5z"/>
<path id="XMLID_1355_" d="M-7737.1,754.2c-3.4-0.5-6.6-1-9.8-1.4c-2.9-0.4-5.8-0.9-8.7-1.3c-0.8-0.1-1.2-0.4-1.4-1.3
	c3,0.3,5.8,0.8,8.7,1.2c2.9,0.4,5.8,0.8,8.8,1.3c-0.2-0.3-0.3-0.5-0.4-0.7c-1.6-2-3.3-4.1-4.9-6.1c-0.3-0.4-0.6-0.9-0.7-1.4
	c-1.8-6.2-3.7-12.4-5.5-18.5c-0.1-0.3-0.2-0.6-0.3-1c2.2-0.4,4.3,0.3,6.5,0.8c-1.3-3.3-2.5-6.4-3.1-9.9c0.6,0.3,1,0.7,1.2,1.3
	c0.7,3.1,1.9,6.1,3.1,9c0.1,0.3,0.3,0.7,0.5,1.1c-2.3-0.4-4.4-1.2-6.8-1.4c0.1,0.4,0.1,0.6,0.2,0.9c1.7,5.8,3.4,11.6,5.1,17.4
	c0.1,0.5,0.4,1,0.7,1.4c2.1,2.6,4.2,5.1,6.2,7.7C-7737.6,753.5-7737.4,753.7-7737.1,754.2z"/>
<path id="XMLID_1347_" d="M-7870.6,740c-0.1-0.3-0.2-0.6-0.3-1c1.5-1,3.2-1.2,4.8-0.9c1.6,0.3,3.1,0.7,4.7,1.2
	c2.2,0.6,4.4,1.4,6.6,1.9c2.8,0.7,5.7,0.9,8.5,0c5.6-1.7,9.2-5.5,10.8-11s0.8-10.7-2.5-15.5c-0.1-0.2-0.2-0.4-0.3-0.7
	c0.2,0.1,0.4,0.3,0.5,0.4c1.9,2.1,3.1,4.6,3.6,7.4c0.6,3.6,0.5,7.1-0.9,10.4c-2.2,5.4-6,9-11.8,10.2c-3.5,0.7-6.9,0.2-10.3-0.8
	c-1.8-0.6-3.6-1.2-5.4-1.8c-1.8-0.6-3.6-0.9-5.4-0.7C-7868.8,739.5-7869.6,739.8-7870.6,740z"/>
<path id="XMLID_1331_" d="M-8018.3,744.8c-0.7,0-1.4-0.3-2-0.6c-1.1-0.6-1.9-1.6-2.6-2.6c-1.4-2.2-2.2-4.6-2.8-7.1
	c-0.8-3.1-1.1-6.3-1.2-9.5c-0.1-3.7-0.1-7.3,0.4-11c0.4-3,0.9-6,2.2-8.7c0.6-1.4,1.5-2.7,2.6-3.8c1.7-1.5,3.6-2.3,5.9-1.9
	c1.9,0.3,3.2,1.4,4.4,2.8c0.1,0.1,0,0.2,0.1,0.4c-0.2-0.1-0.4-0.1-0.5-0.2c-0.6-0.4-1.2-0.8-1.8-1.2c-2.3-1.3-4.5-1-6.7,0.5
	c-1.3,0.9-2.1,2.1-2.8,3.5c-1,2-1.6,4.2-1.9,6.5c-1,6.8-1,13.6,0,20.4c0.4,2.5,1,5,2.1,7.2c0.5,0.9,1,1.8,1.6,2.7
	c0.7,1,1.5,1.7,2.6,2.2c0.2,0.1,0.4,0.3,0.6,0.4C-8018.3,744.7-8018.3,744.7-8018.3,744.8z"/>
<path id="XMLID_1327_" d="M-7789.9,743.5c-0.6,1.1-1.1,2.2-1.7,3.4c-0.1,0-0.3,0.1-0.4,0c-4.1-0.4-8.3-0.9-12.4-1.3
	c-3.9-0.4-7.8-0.7-11.6-1.1c-3.8-0.3-7.7-0.7-11.5-1c-0.8-0.1-0.8-0.1-1.1-1.2c12.2,1,24.4,2.1,36.5,3.4c0.1-0.1,0.2-0.1,0.2-0.2
	c0.3-0.7,0.9-1.4,0.9-2c0-0.6-0.7-1.3-1.1-1.9c-2.1-2.8-3.8-5.9-5-9.2c-0.1-0.4-0.2-0.7-0.4-1.2c0.6,0.2,1,0.3,1.2,0.8
	c1.5,4.1,3.8,7.7,6.4,11.1C-7790,743.2-7790,743.3-7789.9,743.5z"/>
<path id="XMLID_1326_" d="M-7950.2,744c-0.1-0.3-0.3-0.6-0.5-1c1.9-0.1,3.6-0.3,5.3-0.4c4.7-0.3,9.5-0.6,14.2-0.9
	c2.4-0.2,4.8-0.3,7.3-0.4c3.1-0.2,6.1-0.3,9.2-0.4c0.5,0,0.8-0.2,1-0.7c0.2-0.6,0.5-1.3,0.8-1.9c-3-3.2-5.3-6.8-6.8-11
	c0.6,0.1,1,0.2,1.3,0.8c1.3,3.4,3.3,6.4,5.7,9.1c0.9,1,0.9,1,0.3,2.3c-0.4,0.8-0.8,1.6-1.1,2.4
	C-7925.7,742.5-7937.9,743.2-7950.2,744z"/>
<path id="XMLID_1325_" d="M-7910,740.6c11.8-0.4,23.6-0.4,35.4-0.4c0.3-0.7,0.6-1.5,0.9-2.2c0.2-0.4-0.1-0.7-0.3-1
	c-1.6-2.5-3-5.1-4.1-7.9c-0.5-1.3-1-2.6-1.5-4c0.7,0.1,1.1,0.3,1.4,1c1.4,3.9,3.2,7.6,5.4,11.1c0.2,0.3,0.2,0.6,0.1,1
	c-0.4,0.8-0.7,1.6-1,2.4c-0.2,0.5-0.5,0.6-1,0.6c-1.4,0-2.9-0.1-4.3,0c-9.5,0.1-19,0.2-28.5,0.3c-0.3,0-0.5,0-0.8,0
	C-7909.2,741.7-7909.6,741.4-7910,740.6z"/>
<path id="XMLID_1324_" d="M-8001.4,729.4c0.3,0.1,0.6,0.2,1,0.4c-0.1,1-0.2,2.1-0.3,3.1c-0.3,2.9-0.9,5.8-2,8.5
	c-1.3,3.2-3,6.1-5.8,8.1c-4.5,3.2-9.4,4.3-14.7,2.5c-1.2-0.4-2.3-1.1-3.4-1.8c-0.2-0.1-0.3-0.3-0.3-0.6c0.2,0.1,0.4,0.2,0.6,0.3
	c2.7,1.5,5.5,2,8.5,1.7c1.5-0.1,3-0.4,4.5-1c3.1-1.2,5.5-3.2,7.5-5.8c2-2.8,3.2-6,3.7-9.4c0.2-1.7,0.4-3.5,0.6-5.3
	C-8001.5,730-8001.5,729.7-8001.4,729.4z"/>
<path id="XMLID_1323_" d="M-7843.9,725c-0.2-0.2-0.4-0.4-0.5-0.6c-1.1-1.4-2.4-2.6-4.1-3.2c-2.2-0.8-4.4-1.6-6.6-2.4
	c-2.3-0.8-4.6-1.7-6.9-2.6c-1-0.4-1.9-1-2.8-1.7c-1-0.8-1.6-1.8-1.7-3.2c0.4,0.3,0.8,0.6,1.1,1c0.6,1,1.5,1.7,2.5,2.2
	c1.1,0.6,2.3,1.1,3.5,1.5c3.3,1.2,6.7,2.4,10,3.6c0.9,0.3,1.8,0.8,2.7,1.3c1.5,0.8,2.4,2.1,2.9,3.7c0,0.1,0,0.2,0,0.4
	C-7843.8,724.9-7843.8,725-7843.9,725z"/>
<path id="XMLID_1322_" d="M-7846.3,697.4c-0.2-0.2-0.4-0.5-0.6-0.7c-1-1.1-2-2.2-3.3-3c-1.2-0.8-2.6-1.3-4.1-1.3
	c-3.3-0.2-5.7,2.3-5.9,5.4c-0.1,1.4,0.2,2.6,0.9,3.7c0.7,1,1.5,1.8,2.2,2.8c0.2,0.2,0.4,0.4,0.7,0.8c-0.3,0-0.4,0-0.5,0
	c-3.5-1.8-5.1-5.7-3.8-9.4c0.8-2.4,2.8-4,5.4-4.2c3.9-0.3,7.5,1.7,9,5.2c0.1,0.2,0.2,0.5,0.2,0.7
	C-7846.1,697.3-7846.2,697.4-7846.3,697.4z"/>
<path id="XMLID_1321_" d="M-7925.7,721.2c-0.8-0.1-0.8-0.5-0.8-1.1c0-3.1,0-6.3,0-9.4c0-2.2,0-4.3,0-6.5c0-0.3,0-0.6,0-1
	c0.6,0.1,0.9,0.3,0.9,0.9c0,5.6,0,11.3,0,16.9C-7925.6,721.1-7925.7,721.1-7925.7,721.2z"/>
<path id="XMLID_1320_" d="M-7803.8,724.4c-0.6-0.2-0.8-0.5-0.8-1c0-5.6,0-11.3,0-16.9c0-0.1,0-0.2,0.1-0.3c0.8,0.3,0.8,0.3,0.8,1.2
	c0,4.1,0,8.1,0,12.2c0,1.3,0,2.6,0,3.8C-7803.7,723.7-7803.8,724-7803.8,724.4z"/>
<path id="XMLID_1319_" d="M-8005.6,711.7c-0.2-0.1-0.5-0.2-0.7-0.3c0.3-1.6,5.1-13.5,6.3-15.4c0.2,0.1,0.4,0.2,0.6,0.3
	C-8001.4,701.4-8003.5,706.5-8005.6,711.7z"/>
<path id="XMLID_1318_" d="M-7841.9,702.5c-0.3-0.2-0.5-0.3-0.8-0.5c1.6-4.3,3.5-8.4,5.4-12.6c0.3,0.2,0.6,0.4,0.8,0.5
	C-7838.3,694.1-7840.1,698.3-7841.9,702.5z"/>
<path id="XMLID_1317_" d="M-7794.4,693.2c0.5,0.5,0.4,0.9,0.1,1.4c-1.7,2.5-3.2,5.1-4.4,7.9c-0.3,0.7-0.6,1.5-0.9,2.3
	c-0.5-0.4-0.6-0.7-0.4-1.3c1.4-3.6,3.1-7,5.4-10.1C-7794.6,693.3-7794.5,693.3-7794.4,693.2z"/>
<path id="XMLID_1316_" d="M-7863.2,724.5c0.3,0,0.5-0.1,0.7-0.1c2.3,7,1.8,6.1,6.7,10.6C-7858.9,734.9-7863.2,729-7863.2,724.5z"/>
<path id="XMLID_1315_" d="M-7921.5,701.2c-0.5-0.3-0.6-0.7-0.4-1.2c1.4-3.8,3.1-7.4,5.4-10.8c0.1-0.1,0.1-0.1,0.2-0.2
	c0.6,0.6,0.6,0.6,0.2,1.2c-1.2,2.1-2.4,4.3-3.5,6.5C-7920.3,698.1-7920.8,699.6-7921.5,701.2z"/>
<path id="XMLID_1135_" d="M-7887,639.4c0.3,0,0.7,0.3,0.7,0.7c0,0.4-0.3,0.7-0.7,0.7s-0.7-0.3-0.7-0.7
	C-7887.6,639.7-7887.3,639.4-7887,639.4z"/>
</svg>
