<?xml version="1.0" encoding="utf-8"?>
<!-- Generator: Adobe Illustrator 19.1.0, SVG Export Plug-In . SVG Version: 6.00 Build 0)  -->
<svg version="1.1" id="Layer_1" xmlns="http://www.w3.org/2000/svg" xmlns:xlink="http://www.w3.org/1999/xlink" x="0px" y="0px"
	 viewBox="0 0 21.3 13.9" style="enable-background:new 0 0 21.3 13.9;" xml:space="preserve">
<style type="text/css">
	.st0{fill:#FFFFFF;}
</style>
<path class="st0" d="M20.9,0.4c-0.3-0.2-0.6-0.4-1-0.4H1.4C1,0,0.6,0.2,0.4,0.5C0.1,0.7,0,1.1,0,1.4v11c0,0.4,0.2,0.8,0.5,1
	c0.3,0.2,0.6,0.4,1,0.4h18.5c0.4,0,0.7-0.2,1-0.4c0.2-0.2,0.4-0.5,0.5-0.9l0-0.1V1.4C21.3,1,21.2,0.6,20.9,0.4z M19.5,12
	c-0.4,0.4-1,0.4-1.4,0.1l-4.8-4.3l-2.2,1.9c-0.4,0.3-0.9,0.3-1.3,0L7.7,7.8l-4.5,4c-0.4,0.4-1,0.3-1.4-0.1c-0.4-0.4-0.3-1,0.1-1.4
	l4.3-3.9l-4-3.4c-0.4-0.3-0.5-1-0.1-1.4s1-0.5,1.4-0.1l7.1,6l7-6.2c0.4-0.4,1-0.3,1.4,0.1s0.3,1-0.1,1.4l-4,3.5l4.6,4.2
	C19.8,11,19.8,11.6,19.5,12z"/>
</svg>
