<?xml version="1.0" encoding="utf-8"?>
<!-- Generator: Adobe Illustrator 19.2.0, SVG Export Plug-In . SVG Version: 6.00 Build 0)  -->
<svg version="1.1" id="Слой_1" xmlns="http://www.w3.org/2000/svg" xmlns:xlink="http://www.w3.org/1999/xlink" x="0px" y="0px"
	 viewBox="-26.1 35.6 15.8 21.4" style="enable-background:new -26.1 35.6 15.8 21.4;" xml:space="preserve">
<style type="text/css">
	.st0{fill:none;stroke:#FFFFFF;stroke-miterlimit:10;}
</style>
<path class="st0" d="M-18.2,56.2c-3.8,0-5.9-2.8-6.7-4.2c-0.2-0.4-0.4-0.9-0.4-1.4v-9.8c0-0.9,0.4-1.8,1.2-2.4
	c1.3-1,2.4-2.1,3.6-1.5c1.1,0.6,2.5,2,2.5,2v2.7"/>
<path class="st0" d="M-18.4,38.8c0,0,1.4-1.4,2.5-2c1.2-0.6,2.3,0.5,3.6,1.5c0.8,0.6,1.2,1.5,1.2,2.4v9.8c0,0.5-0.1,1-0.4,1.4
	c-0.8,1.4-2.9,4.2-6.7,4.2"/>
</svg>
