<?xml version="1.0" encoding="utf-8"?>
<!-- Generator: Adobe Illustrator 19.0.0, SVG Export Plug-In . SVG Version: 6.00 Build 0)  -->
<svg version="1.1" id="Слой_1" xmlns="http://www.w3.org/2000/svg" xmlns:xlink="http://www.w3.org/1999/xlink" x="0px" y="0px"
	 viewBox="0 0 2660.3 536.9" style="enable-background:new 0 0 2660.3 536.9;" xml:space="preserve">
<style type="text/css">
	.st0{fill-rule:evenodd;clip-rule:evenodd;}
</style>
<g>
	<path class="st0" d="M132,431.9l-47.3-79.7C81.1,345.8,57,306.6,57,302l99.6-177.4c9.2-15.8,12.7-11.6,37.4-11.6
		c21.7,0,43.3,0,65,0c23.6,0,15.7-1.7,33.3-14.7C302.1,91,339.6,64.4,340,63H160c-26,0-25.1-0.7-35.7,18.3L0,299
		c0,7.5,3.8,12.4,7.4,18.6l116.2,200.8c4,6.7,7.8,18.6,17.4,18.6h261c6.6,0,10-5.8,12.7-10.3l112-194c15.9-33.4,16.7-36.1,4-57.4
		L435.9,111c-5.8,1.6-32.9,35.8-35,39c3.8,5.7,7,12.1,10.7,18.3c6.3,10.9,74.3,125.8,74.3,131.7c0,2.4-1.1,6.3-3.6,10.6l-91.9,158.8
		c-6.5,10.7-8.5,18.7-19.4,18.6H237c0-50.2,15.1-117.5,30.6-164.4c19.1-57.9,47.3-110.8,82.8-160.2C391.9,105.7,454,45.5,514.6,9.7
		c5.1-3,10.9-5.8,15.3-9.7c-52,4.3-175.1,88.9-214.7,122.2c-86,79.6-136.6,160.1-172.6,268.3C139.5,399.9,132,422.6,132,431.9
		L132,431.9z"/>
	<path class="st0" d="M1014.9,328h-54V184c23.6,0,74.7-1.9,95.4,3.6C1116,203.2,1137.2,328,1014.9,328L1014.9,328z M905.9,444.9
		c22,0,55,3.3,55-27v-73c40.3,0,92,2.3,129.7-4.3c44.8-7.8,70.3-35.3,70.3-82.7c0-82.8-45.4-94-116-94h-139V444.9L905.9,444.9z"/>
	<path class="st0" d="M806.9,382c0,20.8-8.8,32.1-27.4,39.6c-21.2,8.5-51.6,9.2-76.5,7.3c-12.8-1-55.1-9.9-59-9.9
		c-8.8,0-18.3,4.9-19,13l20.9,6.1c39.4,12.2,103.9,14.8,143.2,7c83.7-16.8,102-95.2,34.3-136.5c-38.9-23.7-96.1-36.9-126.8-58.1
		c-22.2-15.3-23.6-50.2,13-62.8c55.1-19,83.2,2.4,127.4,2.4c8.7,0,17.2-4.4,19-11c-2.5-3.4-15.2-6.7-19.9-8.1
		c-18.5-5.7-54.3-10.9-75.1-10.9c-41,0-100.1-2.4-124.6,34.4c-12.3,18.5-13.8,54.8-1.2,74.4c24.9,39,81,51.1,122.2,66.8
		C777.5,345.5,806.9,352.4,806.9,382L806.9,382z"/>
	<path class="st0" d="M1291.8,182c21.4,0,30.4-0.4,42.4,19.5c8.1,13.3,34.8,94.1,43.5,112.4h-143l48.8-128.2
		C1285.3,182.5,1287.1,182,1291.8,182L1291.8,182z M1270.8,164c-1.5,6.6-4.2,11.2-6.6,17.4l-104.4,263.5c30.9,0,25.9-8.4,35.7-31.3
		l31.3-81.7h158c3.8,16.4,18,48.2,24,64c18,40.4,5.3,49,66,49h13c-0.1-4.8-1.5-5.9-3.2-9.8l-50.2-130.8
		c-7.5-22.4-36.3-101.2-48.6-118.4C1365.7,159.1,1332.2,161,1270.8,164L1270.8,164z"/>
	<path class="st0" d="M1814.8,420.9c0,23.5,26,24,47,24h158c8.4,0,20.3-3.5,24.1-12c1.2-2.6,3.6-8-1.1-8h-173V311c0-4.8,8.8-3,18-3
		l109,0c15.5,0.1,24.6-4,25-19h-152V184h150c22.4,0,27.5-20,21-20h-226V420.9L1814.8,420.9z"/>
	<path class="st0" d="M1515.8,304c0,55.9,9.1,94.8,56.6,126.4c42.3,25.3,144.1,22.5,193,10.2c3.8-1,6.9-2.3,10.4-2.6
		c-0.2-10.6-13.9-15-21-15c-23.2,0-72.4,17.3-120.4-1.5c-51.2-20.1-55.3-69.7-58.6-116.4c3.8-47.6,6.4-94.7,57.3-116.7
		c47.5-20.5,100.9,0.2,127.6-3.4c6.6-0.9,14.6-7,15.1-13.9c-51.1-11.9-135-19.1-184.1-1.1C1530.5,198.5,1515.8,235.6,1515.8,304
		L1515.8,304z"/>
	<path class="st0" d="M2484.7,331l0,102c-0.1,12.1-1.8,12,8,12c17.2,0,39.2-0.5,45.3-14.6c3.4-7.9,1.6-86.5,1.6-99.3
		c9.5-5,11.6-2.1,22.8-13.2c25.6-25.6,73.9-114,96.1-149.1c2-3.3,3.4-4.6-1.8-4.6c-25.9,0-26.4,10-39,29c-12.1,19.3-65.4,119-86,119
		c-33.9,0-82.6-108-99.8-131.1c-5.5-7.3-11.9-13-22.4-14.6c-16-2.3-30.4-2.3-46.7-2.3c-4.3,0-2.2,2.4-1.2,4
		c22.3,35.2,68.8,121.4,98.4,150.8C2464.8,323.6,2476.2,330.3,2484.7,331L2484.7,331z"/>
	<path class="st0" d="M2087.7,184h90v261c12.8,0,31.1-0.5,41.1-3.8c10.2-3.4,14.8-11.9,14.8-25.1V184h110c5.5,0,4.8-20-23-20h-254
		C2059.9,164,2064.7,184,2087.7,184L2087.7,184z"/>
</g>
</svg>
