<?xml version="1.0" encoding="utf-8"?>
<!-- Generator: Adobe Illustrator 19.2.0, SVG Export Plug-In . SVG Version: 6.00 Build 0)  -->
<svg version="1.1" id="Capa_1" xmlns="http://www.w3.org/2000/svg" xmlns:xlink="http://www.w3.org/1999/xlink" x="0px" y="0px"
	 viewBox="0 0 27.2 27.2" style="enable-background:new 0 0 27.2 27.2;" xml:space="preserve">
<g>
	<path d="M26.8,19.8c0-0.1-0.1-0.1-0.1-0.2c-0.5-0.8-1.3-1.9-2.7-3.1l0,0l0,0l0,0h0c-0.6-0.6-1-0.9-1.1-1.1
		c-0.3-0.4-0.4-0.7-0.2-1.1c0.1-0.3,0.5-0.9,1.3-1.8c0.4-0.5,0.7-0.9,0.9-1.2c1.6-2.1,2.3-3.5,2.1-4.1L26.8,7
		c-0.1-0.1-0.2-0.2-0.4-0.2c-0.2-0.1-0.5-0.1-0.9,0l-4,0c-0.1,0-0.2,0-0.3,0c-0.1,0-0.2,0-0.2,0l-0.1,0l-0.1,0c0,0-0.1,0.1-0.2,0.1
		c-0.1,0.1-0.1,0.2-0.1,0.2c-0.4,1.1-0.9,2.2-1.5,3.1c-0.3,0.6-0.7,1.1-0.9,1.5c-0.3,0.4-0.5,0.7-0.7,0.9c-0.2,0.2-0.4,0.4-0.5,0.5
		c-0.2,0.1-0.3,0.2-0.4,0.2s-0.2,0-0.2-0.1c-0.1-0.1-0.2-0.2-0.3-0.3c-0.1-0.1-0.1-0.3-0.2-0.5c0-0.2,0-0.4,0-0.6c0-0.2,0-0.4,0-0.7
		c0-0.3,0-0.5,0-0.6c0-0.4,0-0.7,0-1.1s0-0.7,0-1c0-0.2,0-0.5,0-0.8s0-0.5,0-0.6c0-0.2-0.1-0.3-0.1-0.4c-0.1-0.1-0.2-0.3-0.3-0.3
		c-0.1-0.1-0.3-0.1-0.5-0.2C14.5,6.1,13.8,6,13.1,6c-1.7,0-2.8,0.1-3.3,0.3C9.6,6.4,9.4,6.6,9.2,6.8C9.1,7,9,7.1,9.2,7.1
		c0.6,0.1,0.9,0.3,1.2,0.6l0.1,0.2c0.1,0.1,0.1,0.3,0.2,0.6c0.1,0.3,0.1,0.6,0.1,1c0,0.7,0,1.3,0,1.7c0,0.5-0.1,0.9-0.1,1.1
		c0,0.3-0.1,0.5-0.2,0.7c-0.1,0.2-0.1,0.3-0.2,0.3c0,0,0,0.1-0.1,0.1c-0.1,0-0.2,0.1-0.4,0.1c-0.1,0-0.3-0.1-0.5-0.2
		C9.2,13.1,9,13,8.8,12.7c-0.2-0.2-0.4-0.5-0.7-1c-0.2-0.4-0.5-0.9-0.8-1.4L7.1,9.9C6.9,9.7,6.8,9.3,6.5,8.8c-0.2-0.5-0.5-1-0.6-1.4
		C5.8,7.2,5.7,7,5.5,6.9l-0.1,0c0,0-0.1-0.1-0.2-0.1C5.2,6.7,5,6.7,4.9,6.7l-3.8,0C0.7,6.7,0.5,6.8,0.3,7L0.3,7c0,0,0,0.1,0,0.2
		c0,0.1,0,0.2,0.1,0.4c0.6,1.3,1.2,2.6,1.8,3.8s1.2,2.2,1.7,2.9c0.5,0.7,1,1.4,1.5,2.1c0.5,0.7,0.8,1.1,1,1.3s0.3,0.3,0.4,0.4
		L7,18.5c0.2,0.2,0.5,0.5,1,0.8c0.4,0.3,0.9,0.6,1.4,0.9c0.5,0.3,1.1,0.5,1.8,0.7c0.7,0.2,1.4,0.3,2,0.2h1.6c0.3,0,0.6-0.1,0.7-0.3
		l0.1-0.1c0-0.1,0.1-0.1,0.1-0.3c0-0.1,0-0.2,0-0.4c0-0.4,0-0.8,0.1-1.1c0.1-0.3,0.1-0.6,0.2-0.7c0.1-0.2,0.2-0.3,0.3-0.4
		c0.1-0.1,0.2-0.2,0.2-0.2c0,0,0.1,0,0.1,0c0.2-0.1,0.5,0,0.8,0.2c0.3,0.2,0.6,0.5,0.8,0.8c0.3,0.3,0.6,0.7,1,1.1
		c0.4,0.4,0.7,0.7,1,0.9l0.3,0.2c0.2,0.1,0.4,0.2,0.7,0.3c0.3,0.1,0.6,0.1,0.8,0.1l3.6-0.1c0.4,0,0.6-0.1,0.8-0.2
		c0.2-0.1,0.3-0.2,0.3-0.4c0-0.1,0-0.3,0-0.5C26.8,20,26.8,19.8,26.8,19.8z"/>
</g>
</svg>
