<?xml version="1.0" encoding="utf-8"?>
<!-- Generator: Adobe Illustrator 19.0.0, SVG Export Plug-In . SVG Version: 6.00 Build 0)  -->
<svg version="1.1" id="object" xmlns="http://www.w3.org/2000/svg" xmlns:xlink="http://www.w3.org/1999/xlink" x="0px" y="0px"
	 viewBox="0 0 145.8 249" style="enable-background:new 0 0 145.8 249;" xml:space="preserve">
<style type="text/css">
	.st0{fill:#BCBCBC;}
	.st1{fill:none;stroke:#BCBCBC;stroke-miterlimit:10;}
</style>
<g>
	<g>
		<path class="st0" d="M72.9,158.2c0-1.3-0.8-2.4-1.9-2.8c-2.3-0.9-6.9-1.3-14.1,2.9c-6.2,3.6-18.8,10.6-22.5,9.1
			c0,0,20.7,12,37.6-1c0.6-0.5,1-1.2,1-2V158.2z"/>
		<path class="st0" d="M72.9,158.2c0-1.3,0.8-2.4,1.9-2.8c2.3-0.9,6.9-1.3,14.1,2.9c6.2,3.6,18.8,10.6,22.5,9.1c0,0-20.7,12-37.6-1
			c-0.6-0.5-1-1.2-1-2V158.2z"/>
	</g>
</g>
<path class="st2" d="M63.9,99.9c0,0-5.8-4.5-7.9-4.2l-0.6,0.9c0,0-12.5-5.1-23.2,0.8l-5.8,5.1c0,0,1.2,1.8,5.2,1.2
	c0,0,9.2-1.8,17.7-0.9C49.3,102.7,61.2,105,63.9,99.9z"/>
<path class="st2" d="M82.2,99.1c0,0,4.9-7.1,7.1-7l0.7,0.8c0,0,11.9-5,23.4-0.5l6.4,4.2c0,0-1,2-5,1.9c0,0-9.6-2.4-17.9-0.3
	C96.9,98.2,85.6,103.9,82.2,99.1z"/>
<g>
	<polygon class="st1" points="17.8,106.5 17.8,106.5 17.8,106.5 	"/>
	<path class="st1" d="M140,102.4L140,102.4c-0.2-0.2-0.5-0.4-0.7-0.6c-0.1-0.1-0.2-0.2-0.4-0.2c-0.2-0.1-0.4-0.2-0.5-0.3
		c-0.1-0.1-0.3-0.1-0.4-0.2c-0.2-0.1-0.4-0.1-0.5-0.2c-0.1,0-0.3-0.1-0.4-0.1c-0.2,0-0.4,0-0.5-0.1c-0.2,0-0.3,0-0.5,0
		c-0.2,0-0.3,0-0.5,0c-0.2,0-0.3,0-0.5,0.1c-0.2,0-0.3,0.1-0.5,0.1c-0.2,0-0.3,0.1-0.5,0.2c-0.1,0.1-0.3,0.1-0.4,0.2
		c-0.2,0.1-0.3,0.2-0.5,0.3c-0.1,0-0.1,0.1-0.2,0.1c-0.2,0.2-0.4,0.3-0.6,0.5l-4.3,4.1l0,0l0,0l-1.6,27.6c0,0,1.4,9.1,2.6,19.5
		c2.1-1.3,9.7-11.9,11.9-16.5c0.5-1,0.8-2.1,1-3.2l3.7-14.5C146.6,113.2,144.5,106.9,140,102.4z"/>
	<polygon class="st1" points="128,106.4 128,106.5 128,106.4 	"/>
	<path class="st1" d="M19.5,134.1l-1.6-27.6l-4.3-4.1c-0.3-0.3-0.5-0.5-0.8-0.7c0,0-0.1,0-0.1-0.1c-0.2-0.1-0.5-0.3-0.8-0.4
		c-0.1,0-0.2-0.1-0.3-0.1c-0.2-0.1-0.4-0.1-0.6-0.2c-0.1,0-0.3,0-0.4-0.1c-0.2,0-0.4,0-0.5,0c-0.2,0-0.3,0-0.5,0c-0.2,0-0.3,0-0.5,0
		c-0.2,0-0.4,0.1-0.6,0.1c-0.1,0-0.3,0.1-0.4,0.1c-0.2,0.1-0.4,0.1-0.6,0.2c-0.1,0-0.2,0.1-0.3,0.2c-0.2,0.1-0.4,0.2-0.6,0.3
		c-0.2,0.2-0.4,0.3-0.7,0.5v0c-4.5,4.4-6.6,10.8-5.6,17L4,134c0.2,1.1,0.5,2.2,1,3.2c3.2,7,6,12.8,11.9,16.5
		C18.1,143.2,19.5,134.1,19.5,134.1z"/>
</g>
<path d="M4.1,86.9c-0.5,7.2,0.1,12,1.4,15.1c2.1-1.6,5.1-1.5,7.1,0.4l4.3,4.1l0,0l1.6,27.6c0,0,0,0.2-0.1,0.5h3.1
	c-1.7-13.2-3.1-27.2-4-35.9c0.5-7.2,1.3-17.6,1.3-22.1C18.7,69.2,30,56,30,56c47.7,12.7,84.6,0.5,84.6,0.5
	c10.4,8.3,11.8,18.1,11.8,18.1l2,24.1c-0.9,8.6-2.3,22.7-4,35.8h3.1c0-0.3-0.1-0.5-0.1-0.5l1.6-27.6l0-0.1l0,0.1l4.3-4.1
	c2-1.9,5.1-2,7.2-0.4c0.7-4.1-0.2-10.8,1-20.6c2.6-21,0.2-26.3,0.2-26.3c5.1-15.3-18.7-32-18.7-32c-5.7-15.2-21.7-12.7-21.7-12.7
	c-0.5-4.4-9-7.8-11.3-10c-2.4-2.2-14.2,6.1-14.2,6.1c-13.7-11.8-26-2.9-26-2.9C34.8,2.1,30,17.3,30,17.3
	c-11.3,1.5-10.4,10.3-10.4,10.3C14,30.5,13,41.3,13,41.3C0.3,47.7,3.9,56,3.9,56C-1.9,65.3,4.1,86.9,4.1,86.9z M52,5
	c0.2,39.4,18.2,54.5,18.2,54.5C44.7,41.5,52,5,52,5z M39.5,11.6c0,0-3.5,23.9,16.3,38.5C55.8,50.1,28.7,36,39.5,11.6z M58.1,59.5
	c0,0-33.1-3-37.2-31.5C20.9,28,28.2,51.1,58.1,59.5z"/>
<g>
	<path class="st0" d="M17.7,100.8c0-0.2,0-0.3,0-0.5C17.6,100.5,17.6,100.7,17.7,100.8z"/>
	<path class="st0" d="M18.4,108.3C18.4,108.2,18.4,108.2,18.4,108.3C18.4,108.2,18.4,108.2,18.4,108.3z"/>
	<path class="st0" d="M127.4,134.1c0,0,0,0.1,0,0.1C127.4,134.2,127.4,134.1,127.4,134.1z"/>
	<path class="st0" d="M18.4,134.3c0-0.1,0-0.1,0-0.1S18.4,134.2,18.4,134.3z"/>
	<path class="st0" d="M18,104.4c0-0.1,0-0.2,0-0.3C18,104.1,18,104.3,18,104.4z"/>
	<path class="st0" d="M17.8,102.4c0-0.1,0-0.1,0-0.2C17.8,102.2,17.8,102.3,17.8,102.4z"/>
	<path class="st0" d="M18.7,110.4C18.7,110.4,18.7,110.4,18.7,110.4C18.7,110.4,18.7,110.4,18.7,110.4z"/>
	<path class="st0" d="M127.9,104.1C127.9,104.1,127.9,104.1,127.9,104.1C127.9,104.1,127.9,104.1,127.9,104.1z"/>
	<path class="st0" d="M127.5,134.6h-3.1c0,0,0,0,0,0c-1.6,12.4-3.3,24-4.9,29.6c-4.3,15.2-24.9,33.4-24.9,33.4
		c-4-4.6-13.7-10.3-13.7-10.3l-8,0.3l-8-0.3c0,0-9.7,5.8-13.7,10.3c0,0-20.7-18.2-24.9-33.4c-1.6-5.6-3.3-17.3-4.9-29.6c0,0,0,0,0,0
		h-3.1c-0.7,4.5-6.2,41.9-3.9,47.9c0,0-1.2,22.2,6.4,29.5c7.6,7.3,15.5,20.1,15.5,20.1s3.6-1.2,4.3-3c0,0,12.3,20.1,32.3,20.1
		c20,0,32.3-20.1,32.3-20.1c0.6,1.8,4.3,3,4.3,3s7.9-12.8,15.5-20.1c7.6-7.3,6.4-29.5,6.4-29.5C133.6,176.5,128.1,139.1,127.5,134.6
		z"/>
	<path class="st0" d="M128,102.4c0-0.1,0-0.1,0-0.2C128,102.3,128,102.3,128,102.4z"/>
	<path class="st0" d="M128.2,100.7c0-0.1,0-0.2,0-0.3C128.2,100.5,128.2,100.6,128.2,100.7z"/>
	<path class="st0" d="M127.4,108.3C127.4,108.3,127.4,108.2,127.4,108.3C127.4,108.2,127.4,108.3,127.4,108.3z"/>
</g>
</svg>
