<?xml version="1.0" encoding="utf-8"?>
<!-- Generator: Adobe Illustrator 19.0.0, SVG Export Plug-In . SVG Version: 6.00 Build 0)  -->
<svg version="1.1" id="Слой_1" xmlns="http://www.w3.org/2000/svg" xmlns:xlink="http://www.w3.org/1999/xlink" x="0px" y="0px"
	 viewBox="262 -110 269.9 565.2" style="enable-background:new -162 138.7 269.9 565.2;" xml:space="preserve">
<style type="text/css">
	.st0{fill:#DFDFDF;stroke:#000000;stroke-width:3;stroke-miterlimit:10;}
	.st1{fill:none;stroke:#000000;stroke-miterlimit:10;}
	.st2{fill:#DFDFDF;stroke:#000000;stroke-miterlimit:10;}
	.st3{stroke:#000000;stroke-miterlimit:10;}
</style>
<path class="st0" d="M516.2-102.9H340.4c-22,0-39.8,17.8-39.8,39.8v472.4c0,22,17.8,39.8,39.8,39.8h175.8c22,0,39.8-17.8,39.8-39.8
	V-63.1C556-85.1,538.2-102.9,516.2-102.9z M539.6,368.6H316V-37.3h223.6V368.6z"/>
<g>
	<rect x="316" y="-37.3" class="st1" width="223.6" height="405.9"/>
	<path class="st2" d="M521.5-109.5H334.8c-22,0-39.8,17.8-39.8,39.8v484.6c0,22,17.8,39.8,39.8,39.8h186.7c22,0,39.8-17.8,39.8-39.8
		V-69.7C561.3-91.7,543.5-109.5,521.5-109.5z M556,409.3c0,22-17.8,39.8-39.8,39.8H340.4c-22,0-39.8-17.8-39.8-39.8V-63.1
		c0-22,17.8-39.8,39.8-39.8h175.8c22,0,39.8,17.8,39.8,39.8V409.3z"/>
</g>
<path class="st1" d="M430.3,399.5c-11.8,0-21.3,9.5-21.3,21.3c0,11.8,9.5,21.3,21.3,21.3c11.8,0,21.3-9.5,21.3-21.3
	C451.6,409.1,442,399.5,430.3,399.5z M430.3,439.7c-10.4,0-18.8-8.4-18.8-18.8c0-10.4,8.4-18.8,18.8-18.8c10.4,0,18.8,8.4,18.8,18.8
	C449.1,431.3,440.6,439.7,430.3,439.7z"/>
<circle class="st1" cx="375.6" cy="-70.9" r="6.6"/>
<path class="st1" d="M447.8-68h-36.1c-1.6,0-2.9-1.3-2.9-2.9l0,0c0-1.6,1.3-2.9,2.9-2.9h36.1c1.6,0,2.9,1.3,2.9,2.9l0,0
	C450.7-69.3,449.4-68,447.8-68z"/>
<path class="st3" d="M562.3,53.5L562.3,53.5c-0.4,0-0.7-0.3-0.7-0.7V13.2c0-0.4,0.3-0.7,0.7-0.7l0,0c0.4,0,0.7,0.3,0.7,0.7v39.6
	C563,53.2,562.7,53.5,562.3,53.5z"/>
<path class="st3" d="M294,53.5L294,53.5c-0.4,0-0.7-0.3-0.7-0.7V13.2c0-0.4,0.3-0.7,0.7-0.7l0,0c0.4,0,0.7,0.3,0.7,0.7v39.6
	C294.7,53.2,294.4,53.5,294,53.5z"/>
<path class="st3" d="M294-2.5L294-2.5c-0.4,0-0.7-0.3-0.7-0.7v-17c0-0.4,0.3-0.7,0.7-0.7l0,0c0.4,0,0.7,0.3,0.7,0.7v17
	C294.7-2.8,294.4-2.5,294-2.5z"/>
<path class="st3" d="M294,116.9L294,116.9c-0.4,0-0.7-0.3-0.7-0.7V76.6c0-0.4,0.3-0.7,0.7-0.7l0,0c0.4,0,0.7,0.3,0.7,0.7v39.6
	C294.7,116.6,294.4,116.9,294,116.9z"/>
<line class="st1" x1="300.7" y1="-47.6" x2="295" y2="-47.6"/>
<line class="st1" x1="300.7" y1="-37.3" x2="295" y2="-37.3"/>
<line class="st1" x1="561.7" y1="-47.6" x2="556" y2="-47.6"/>
<line class="st1" x1="561.7" y1="-37.3" x2="556" y2="-37.3"/>
<line class="st1" x1="300.7" y1="395.5" x2="295" y2="395.5"/>
<line class="st1" x1="300.7" y1="405.8" x2="295" y2="405.8"/>
<line class="st1" x1="561.7" y1="395.5" x2="556" y2="395.5"/>
<line class="st1" x1="561.7" y1="405.8" x2="556" y2="405.8"/>
</svg>
